<svg xmlns="http://www.w3.org/2000/svg" xml:space="preserve" fill-rule="evenodd" clip-rule="evenodd" image-rendering="optimizeQuality" shape-rendering="geometricPrecision" text-rendering="geometricPrecision" viewBox="0 0 33.88 23.26">
  <path fill="#7688a1" d="m24.63 15.42-2.19 2.22 1.42-.43.77.67.77-.67 1.42.43-2.19-2.22zm-11.96-3.79-5.38 5.44 3.5-1.04 1.88 1.64 1.88-1.64 3.5 1.04-5.38-5.44zM.37 22.91c-.23-.23-.37-.54-.37-.89V1.24C0 .56.56 0 1.24 0h31.4c.68 0 1.24.56 1.24 1.24v20.78c0 .69-.56 1.24-1.24 1.24H1.24c-.34 0-.64-.13-.87-.35zm.77-.78 1.49-1.51 10.04-10.16 8.19 8.29 3.77-3.81 4.09 4.14 3.05 3.09h.87c.08 0 .15-.06.15-.15V1.24c0-.08-.07-.15-.15-.15H1.24c-.08 0-.15.07-.15.15v20.78c0 .05.02.09.05.11zM23.05 5.22c1.45 0 2.62 1.18 2.62 2.62 0 1.45-1.17 2.62-2.62 2.62-1.44 0-2.61-1.17-2.61-2.62 0-1.44 1.17-2.62 2.61-2.62z"/>
</svg>
