<svg width="34" height="14" viewBox="0 0 34 14" fill="none" xmlns="http://www.w3.org/2000/svg">
<path d="M0.597266 14V-9.53674e-07H7.21727C8.76393 -9.53674e-07 10.1239 0.286666 11.2973 0.86C12.4706 1.43333 13.3839 2.24 14.0373 3.28C14.7039 4.32 15.0373 5.56 15.0373 7C15.0373 8.42667 14.7039 9.66667 14.0373 10.72C13.3839 11.76 12.4706 12.5667 11.2973 13.14C10.1239 13.7133 8.76393 14 7.21727 14H0.597266ZM4.55727 10.84H7.05727C7.85727 10.84 8.5506 10.6933 9.13727 10.4C9.73727 10.0933 10.2039 9.65333 10.5373 9.08C10.8706 8.49333 11.0373 7.8 11.0373 7C11.0373 6.18667 10.8706 5.49333 10.5373 4.92C10.2039 4.34667 9.73727 3.91333 9.13727 3.62C8.5506 3.31333 7.85727 3.16 7.05727 3.16H4.55727V10.84ZM17.1207 14V-9.53674e-07H20.3807L26.1807 9.52H24.4607L30.1007 -9.53674e-07H33.3607L33.4007 14H29.7607L29.7207 5.54H30.3407L26.1207 12.62H24.3607L20.0207 5.54H20.7807V14H17.1207Z" fill="#1F1F1F"></path>
</svg>
