<svg xmlns="http://www.w3.org/2000/svg" aria-hidden="true" overflow="hidden" style="width:0;height:0;position:absolute">
  <defs>
    <symbol id="calculation" viewBox="0 0 32 32">
      <path d="M16.337 25.746V15.264c0-.474.355-.919.797-.919h8.03c.441 0 .797.446.797.919v10.482c0 .254-.181.509-.341.639-.184.15-.452.219-.762.219h-7.417c-.613 0-1.103-.351-1.103-.858zm-.858-10.849c-.858 0-1.716.002-2.575 0-.475-.001-.866-.076-1.033.261-.168.338.107.659.482.659h3.065v2.452h-2.942c-.883 0-.813.919-.184.919h3.126v2.513h-3.249c-.39 0-.556.858.123.858h3.126v2.758H7.266c-.359 0-.724-.069-.933-.232-.189-.148-.354-.488-.354-.81V9.932h2.574c1.151 0 1.961-.81 1.961-1.961V5.397h8.459c.613 0 1.103.351 1.103.858v7.172h-2.82c-.969 0-1.592.675-1.777 1.47zM6.653 9.012 9.58 6.055c.015.505.015.996.015 1.486.001 1.323-.148 1.472-1.471 1.471H6.653zM5.12 9.38v15.079c0 .848.664 1.473 1.337 1.666.467.134 8.206.05 9.083.05.05.598.859 1.287 1.532 1.287h8.152c.877 0 1.655-.869 1.655-1.961V15.387c0-.276-.052-.586-.128-.791-.251-.675-.954-1.17-1.711-1.17h-4.046V6.377c0-.507-.227-.961-.475-1.242-.231-.262-.72-.597-1.18-.597H9.961c-.203 0-2.292 2.2-2.467 2.375L6.299 8.108c-.182.182-1.18 1.095-1.18 1.272z"></path>
      <path d="M18.115 16.245h6.068v2.207h-6.068v-2.207zm-.92-.123v2.329c0 .442.309.858.735.858h6.436c.437 0 .736-.398.736-.858v-2.329c0-.246-.198-.518-.353-.627-.174-.123-.523-.169-.811-.169H18.36c-.563 0-1.165.191-1.165.797zM23.754 21.088h.613v3.678h-.613v-3.678zm-.92-.062v3.862c0 1.087 2.391 1.058 2.391.122v-4.168c0-.798-1.124-.674-1.532-.674-.51 0-.858.348-.858.858zM12.353 9.319h5.455c.864 0 .753-.919.123-.919h-5.639c-.679 0-.59.919.061.919zM12.598 12.445h5.087c1.141 0 .723-.919.368-.919h-5.762c-.576 0-.814.919.307.919zM17.931 21.088h.613v.613h-.613v-.613zm-.858-.246c0 1.124-.232 1.778 1.226 1.778.288 0 .637-.046.811-.169.454-.321.353-.846.353-1.424 0-.98-.942-.858-1.532-.858-.419 0-.858.27-.858.674zM17.931 24.152h.613v.613h-.613v-.613zm-.858-.184c0 1.488-.12 1.716 1.471 1.716 1.059 0 .919-.942.919-1.594 0-.912-.894-.858-1.41-.858-.517 0-.981.243-.981.735zM20.812 21.088h.674v.613h-.674v-.613zm-.858-.184c0 1.025-.185 1.716 1.226 1.716 1.376 0 1.165-.751 1.165-1.716 0-.841-1.03-.735-1.532-.735-.46 0-.858.299-.858.735zM20.812 24.152h.674v.613h-.674v-.613zm-.858-.184c0 1.549-.05 1.716 1.532 1.716 1.042 0 .858-1.009.858-1.716 0-1.027-2.391-.989-2.391 0zM9.227 18.574c-.309-.207-.34-.49-.797-.49-.173 0-.368.256-.368.429 0 .316.295.509.475.689.784.784.833.546 1.563-.184.271-.271.598-.455.598-.873 0-.199-.267-.368-.49-.368-.246 0-.754.645-.981.797zM9.227 15.203c-.371-.248-.26-.491-.797-.491-.157 0-.368.17-.368.491 0 .105.853 1.103 1.165 1.103.336 0 1.471-1.135 1.471-1.471 0-.286-.143-.429-.429-.429-.402 0-.749.6-1.042.797zM9.227 22.007c-.577-.862-1.165-.522-1.165-.123 0 .27.889 1.365 1.34 1.162.057-.026 1.296-1.103 1.296-1.407 0-.262-.189-.491-.429-.491-.299 0-.788.688-1.042.858zM9.227 11.832c-.203-.136-.375-.404-.561-.488-.242-.109-.603.069-.603.365 0 .362.956 1.226 1.165 1.226.37 0 .98-.819 1.152-.994.175-.179.319-.188.319-.477 0-.481-.333-.429-.552-.429-.194 0-.719.663-.919.797z"></path>
    </symbol>
    <symbol id="communication" viewBox="0 0 32 32">
      <path d="M10.572 19.892c-.012.52-.636.984-1.051.47-.125-.155-.155-.295-.239-.47h1.29zm-2.759-2.831c0-1.426 1.498-2.577 3.008-1.928 1.02.438 1.553 1.688 1.068 2.796-.729 1.666-3.173 1.626-3.88 0-.087-.2-.196-.61-.196-.867zm4.628 5.22v3.981H7.458v-4.246h-.712v4.246H5.678v-3.008c0-1.258.591-2.398 1.69-2.964.307-.158.74-.353 1.202-.353.014.614.652 1.371 1.29 1.371.937 0 1.448-.776 1.513-1.548 2.028-.47 2.578-1.213 3.815-2.444.314-.312 2.092-2.171 2.399-2.305.301-.132.638-.025.8.253.316.54-.196.88-.551 1.234-.602.598-5.053 4.96-5.188 5.193-.088.152-.207.379-.207.591zm-5.34-5.396c0 1.683.687 1.889 1.023 2.388-.758 0-1.665.698-2.17 1.204-.451.452-.989 1.487-.989 2.378v4.114h8.187v-4.467c0-.456.388-.717.634-.962.582-.579 5.072-4.992 5.194-5.187.609-.972-.089-2.122-1.067-2.122-.862 0-1.056.409-1.657 1.006-.606.603-2.576 2.644-3.148 3.019-.191.125-.565.387-.801.442.141-.527.489-.432.489-1.813 0-1.336-1.326-2.654-2.67-2.654H9.77c-1.344 0-2.67 1.318-2.67 2.654z"></path>
      <path d="M8.525 11.975V8.702c0-.556.286-.84.845-.84h6.273v3.317c0 .259.11.549.213.718.048.079.125.194.18.263.087.108.152.142.23.258-.173.256-.313.381-.711.399-.189.008-.393-.008-.583-.004-.239.005-.265.06-.415.162-.21.144-1.258.863-1.406.903v-1.062H9.369c-.545 0-.845-.298-.845-.84zm7.831-1.017V6.889c0-.686.466-1.15 1.157-1.15h7.653c.681 0 1.157.473 1.157 1.15v4.069c0 .677-.476 1.15-1.157 1.15h-4.894v1.062c-.169-.045-.74-.461-.925-.584-.587-.389-.571-.484-1.076-.478-.728.007-1.914.105-1.914-1.149zm-.712-4.291v.487H9.148c-.687 0-1.335.644-1.335 1.327v3.715c0 .71.701 1.327 1.29 1.327h3.337v1.725c.342-.18.711-.457 1.05-.681.362-.24.692-.458 1.041-.69.083-.055.434-.306.511-.332.241-.082.593.011.858-.032.381-.062.899-.409.989-.742.227 0 .377.046.667.044.865-.004.663-.092 1.202.265l1.335.885c.278.184.596.421.89.575v-1.725h4.405c.821 0 1.646-.821 1.646-1.636V6.667c0-.816-.825-1.637-1.646-1.637H17.29c-.821 0-1.646.821-1.646 1.637zM21.873 24.846h-4.182c-.817 0-.817-1.062 0-1.062h3.96c.005-.207.566-2.228.673-2.515.206-.554.624-1.027 1.177-1.218.604-.209.99-.212 1.57.023.409.165.654.409.895.747.257.359.355.841.355 1.327v4.114h-4.627v-.708c.408 0 .723.031 1.076-.214.596-.413.665-.975.91-1.705l.862-2.593-.712-.221-1.117 3.357c-.133.401-.293.668-.84.668zm-.89-7.784c0-.524.248-1.098.61-1.472 1.305-1.351 3.661-.382 3.661 1.472 0 .793-.525 1.611-1.264 1.928-1.123.483-2.377-.06-2.812-1.062-.087-.2-.196-.61-.196-.867zm-.712-.177c0 .819.148 1.459.678 2.024.347.371.952.85 1.502.895-.199.296-.616.487-.885 1.42l-.494 1.853H18.18c-.581 0-.901-.059-1.272.195-1.071.731-.437 2.282.561 2.282h3.515v1.415h6.051v-5.175c0-.633-.349-1.304-.657-1.647-.176-.196-.387-.392-.619-.535-.194-.119-.555-.318-.816-.339.103-.152.239-.244.367-.387.103-.115.223-.308.31-.444.305-.48.346-.986.346-1.558 0-1.336-1.326-2.654-2.669-2.654h-.356c-1.344 0-2.67 1.318-2.67 2.654z"></path>
      <path d="M17.068 9.985h8.543v-.708h-8.543v.708zM17.068 11.4h8.543v-.708h-8.543v.708zM17.068 8.569h7.119v-.708h-7.119v.708zM19.915 7.154h5.695v-.708h-5.695v.708zM9.237 10.692h5.695v-.708H9.237v.708zM9.237 12.108h5.695V11.4H9.237v.708zM10.661 9.277h4.271v-.708h-4.271v.708zM17.068 7.154h.712v-.708h-.712v.708zM18.492 7.154h.712v-.708h-.712v.708zM24.899 8.569h.712v-.708h-.712v.708zM9.237 9.277h.712v-.708h-.712v.708z"></path>
    </symbol>
    <symbol id="installation" viewBox="0 0 32 32">
      <path d="M13.543 19.598c0-.152.18-.168.305-.221.121-.051.282-.113.396-.174v6.976h-.702v-6.581zm-7.37 5.747v-.57h3.51c0 1.635-.149 1.404-2.676 1.404-.538 0-.834-.296-.834-.834zm3.773-4.08c0-.223.052-.327.097-.517.038-.161.083-.367.122-.536h.79c-.076.328-.063.514-.266.743-.045.05.003.003-.067.065-.19.17-.398.245-.677.245zm-1.097 1.579c0 .526.169.885.351 1.228H6.305l1.009-3.861H9.42c-.081.349-.57 2.326-.57 2.632zm3.291-3.553V16.22c.357.083 1.514.682 1.755.702v1.667c-.163.013-.713.277-.879.35l-.876.352zm-6.318-1.536c0-.806.577-1.518 1.404-1.711v1.711h.702V16h.702v1.755h.702V16h.702v1.755h.702V16h.702v3.51H7.665c-.245 0-.554-.069-.741-.136-.636-.23-1.101-.942-1.101-1.619zm9.345.702h-.57v-1.404h.57c1.097 0 1.097 1.404 0 1.404zm-.22-11.231h9.827v18.952h-9.827v-7.019c.489 0 .855.04 1.284-.34.21-.186.356-.405.428-.713h2.15v-.702h-2.15c-.072-.309-.218-.527-.428-.713-.428-.379-.795-.34-1.284-.34V7.226zm-.701 9.081c-.307-.163-.702-.217-.702-.395V5.822h12.635v20.356h-.702V6.875c0-.212-.139-.351-.351-.351H14.597c-.439 0-.351.451-.351.877v8.906zm-1.404-.614c-.331-.077-.783-.395-1.097-.395H7.446c-1.195 0-2.325 1.13-2.325 2.325 0 1.212.489 1.883 1.492 2.413-.229.984-.603 2.252-.878 3.29-.051.191-.088.356-.147.555-.179.612-.116.975-.116 1.683 0 .374.191.692.382.89.179.185.55.426.89.426h2.369c.609 0 1.272-.663 1.272-1.272v-1.184c0-.466-.79-.352-.79-1.623 0-.17.123-.725.175-.834.788 0 1.313-.128 1.697-.891.386-.767-.078-.768.431-.886.357-.083.614-.296.943-.373l-.001 6.45c-.003.355.003.613.351.613h13.337c.212 0 .351-.139.351-.351V5.471c0-.212-.139-.351-.351-.351H13.191c-.463 0-.351.546-.351 1.009v9.564z"></path>
      <path d="M20.212 12.49h2.457v2.457h-2.457V12.49zm-3.159 0h2.457v2.457h-2.457V12.49zm3.159-3.115c1.104.025 2.388 1.306 2.413 2.413h-2.413V9.375zm-.702 0v2.413h-2.413c.025-1.104 1.306-2.388 2.413-2.413zm-3.159 2.588v3.334c0 .212.139.351.351.351h6.317c.212 0 .351-.139.351-.351v-3.334c0-1.714-1.62-3.334-3.334-3.334-1.159 0-1.941.295-2.665 1.02-.488.488-1.02 1.359-1.02 2.314zM20.212 22.668h2.457v1.755h-2.457v-1.755zm-3.159 0h2.457v1.755h-2.457v-1.755zm3.159-2.457h2.457v1.755h-2.457v-1.755zm-3.159 0h2.457v1.755h-2.457v-1.755zm-.702-.351v4.913c0 .212.139.351.351.351h6.317c.212 0 .351-.139.351-.351V19.86c0-.212-.139-.351-.351-.351h-6.317c-.212 0-.351.139-.351.351z"></path>
    </symbol>
    <symbol id="measure" viewBox="0 0 32 32">
      <path d="M19.48 11.198h5.974v9.163H19.48v-9.163zm-4.806 5.3h1.348v3.863h-1.348v-3.863zm-.988-.269v4.133h-1.572v-9.163h6.423v9.163h-1.572v-4.267c0-.417-.254-.584-.674-.584h-1.977c-.447 0-.628.269-.628.719zm1.617-9.344c.165.111 2.144 2.605 2.406 2.939.121.154.234.28.334.43h-5.39c.55-.822 2.124-2.582 2.65-3.369zm1.033-.314h5.66l2.92 3.684-5.348.002c-.375.004-.339-.026-.511-.252-.36-.473-2.581-3.171-2.721-3.434zm-5.166 4.132V20.81c0 .127.079.278.144.35.094.104.209.144.395.144h14.15c.368 0 .539-.222.539-.584v-9.927c0-.325-.689-1.087-.937-1.398l-2.597-3.242c-.186-.229-.335-.525-.643-.525h-6.917c-.296 0-.44.27-.623.5l-2.556 3.194c-.185.226-.333.42-.518.649-.135.167-.436.48-.436.733zM5.6 7.514c0 .138.162.449.494.449.362 0 .645-.504.898-.674v17.429c-.234-.157-.453-.501-.675-.63-.321-.186-.718.079-.718.405 0 .253.651.809.842.999 1.229 1.23.831 1.258 2.515-.427.124-.124.752-.613.184-.971-.166-.104-.33-.097-.485-.007-.222.129-.441.473-.675.63V7.288c.473.25.49.674.943.674.257 0 .449-.201.449-.494 0-.254-.58-.737-.842-.999-.831-.831-.924-1.167-1.617-.472C6.639 6.272 5.6 7.172 5.6 7.513zM13.506 25.886c0-.327-.513-.659-.674-.898h11.904c-.165.247-.663.549-.698.866-.046.417.495.692.868.338L26.095 25c.574-.568.313-.608-.561-1.483-.487-.487-1.008-1.245-1.421-.633-.32.475.392.816.623 1.161H12.787c.159-.238.719-.591.719-.898 0-.24-.231-.494-.449-.494-.309 0-.86.658-1.157.955-1.087 1.087-1.063.757.449 2.268.16.16.351.427.599.482.287.064.558-.186.558-.471z"></path>
      <path d="M21.771 13.489h1.348v1.348h-1.348v-1.348zm-.943-.449v2.201c0 .29.168.539.449.539h2.381c.371 0 .449-.386.449-.764 0-.406.057-1.968-.088-2.247-.057-.11-.24-.223-.406-.223h-2.336c-.248 0-.449.259-.449.494z"></path>
    </symbol>
    <symbol id="project" viewBox="0 0 32 32">
      <path d="M11.437 25.827h9.125v.351h-9.125v-.351zm2.369-2.457h4.387c.017.204.169.636.235.862.09.312.177.589.248.893h-5.352c.069-.296.152-.553.238-.858l.244-.896zm-7.984-1.316v-.79h20.356c0 .669.139 1.404-.614 1.404H6.436c-.384 0-.614-.23-.614-.614zm0-13.161c0-.384.23-.614.614-.614h19.128c.384 0 .614.23.614.614v11.67H5.822V8.893zm-.702-.219v13.6c0 .545.586 1.087 1.139 1.099 2.092.044 4.67-.002 6.802-.002-.069.296-.152.553-.238.858l-.244.896c-.366 0-.731.001-1.097 0-.882-.002-.746-.021-.746 1.404 0 .212.139.351.351.351h9.827c.491 0 .351-.656.351-1.404 0-.4-.351-.352-.746-.351-.366.001-.731 0-1.097 0l-.483-1.755 6.758.002c.587-.003 1.182-.535 1.182-1.099v-13.6c0-.514-.583-1.097-1.097-1.097H6.216c-.514 0-1.097.582-1.097 1.097z"></path>
      <path d="M12.9 16.709c.475-.008.839-.112 1.169-.271l.658 1.316h-2.325l.498-1.045zm.424-.797c.044-.191.131-.248.175-.439h.088c.039.167.093.184.132.351-.187.016-.208.072-.395.088zm-2.588-2.018c0-1.806 2.238-2.831 3.587-1.481 1.016 1.016.569 2.555.01 2.929-.258-.488-.425-1.097-.79-1.097-.29 0-.351.241-.508.545l-.354.698c-.085.17-.152.313-.234.468-.286-.137-1.176-.267-1.542-1.265-.068-.185-.169-.538-.169-.796zm-.702-.175c0 .808.136 1.41.647 1.985.347.39.832.775 1.415.911-.031.376-1.204 1.843-.307 1.843h3.51c.757 0 .032-1.121-.102-1.389-.177-.354-.334-.688-.512-1.024.21-.314.965-.826.965-2.062 0-1.233-.606-2.126-1.593-2.618-1.227-.613-2.711-.196-3.509.894-.283.386-.513.938-.513 1.461zM20.519 6.524h-7.326v-.702h7.326c.196 0 .395.178.395.351s-.199.351-.395.351zm-8.906-.395c.362-.084.406-.307.877-.307v.702c-.472 0-.515-.223-.877-.307v-.088zm-1.228.044c0 .346.6.522 1.021.734l.345.182c.144.075.217.137.433.137h8.467c.537 0 .965-.461.965-1.141 0-.483-.483-.965-.965-.965h-8.467c-.24 0-.313.079-.522.18l-.934.47c-.178.086-.343.15-.343.403z"></path>
      <path d="M19.817 17.097c-.165-.014-.253-.067-.413-.113l-2.072-.604c-.297-.085-.566-.182-.849-.248.021-.252.839-2.792.965-3.334.222.018.59.164.824.229l2.51.736-.965 3.334zm-4.168-.702c0 .33.574.419.96.532.371.108.787.224 1.151.34l2.32.664c.33 0 .419-.574.532-.96l.678-2.305c.46-1.627.815-1.282-1.785-2.038l-2.32-.663c-.33 0-.419.574-.532.96l-1.004 3.471zM7.226 10.384h.702v.702h-.702v-.702zm-.702-.35v1.404c0 .212.139.351.351.351h1.404c.212 0 .351-.139.351-.351v-1.404c0-.212-.139-.351-.351-.351H6.875c-.212 0-.351.139-.351.351zM24.072 10.384h.702v.702h-.702v-.702zm-.702-.35v1.404c0 .212.139.351.351.351h1.404c.212 0 .351-.139.351-.351v-1.404c0-.212-.139-.351-.351-.351h-1.404c-.212 0-.351.139-.351.351zM7.226 12.841h.702v.702h-.702v-.702zm-.702-.351v1.404c0 .212.139.351.351.351h1.404c.212 0 .351-.139.351-.351V12.49c0-.212-.139-.351-.351-.351H6.875c-.212 0-.351.139-.351.351zM24.072 12.841h.702v.702h-.702v-.702zm-.702-.351v1.404c0 .212.139.351.351.351h1.404c.212 0 .351-.139.351-.351V12.49c0-.212-.139-.351-.351-.351h-1.404c-.212 0-.351.139-.351.351zM7.226 15.298h.702V16h-.702v-.702zm-.702-.351v1.404c0 .212.139.351.351.351h1.404c.212 0 .351-.139.351-.351v-1.404c0-.212-.139-.351-.351-.351H6.875c-.212 0-.351.139-.351.351zM24.072 15.298h.702V16h-.702v-.702zm-.702-.351v1.404c0 .212.139.351.351.351h1.404c.212 0 .351-.139.351-.351v-1.404c0-.212-.139-.351-.351-.351h-1.404c-.212 0-.351.139-.351.351zM24.072 17.755h.702v.702h-.702v-.702zm-.702-.351v1.404c0 .212.139.351.351.351h1.404c.212 0 .351-.139.351-.351v-1.404c0-.212-.139-.351-.351-.351h-1.404c-.212 0-.351.139-.351.351zM7.226 17.755h.702v.702h-.702v-.702zm-.702-.351v1.404c0 .212.139.351.351.351h1.404c.212 0 .351-.139.351-.351v-1.404c0-.212-.139-.351-.351-.351H6.875c-.212 0-.351.139-.351.351z"></path>
    </symbol>
    <symbol id="working-process" viewBox="0 0 32 32">
      <path d="m7.23 22.184.298.491c.114.183.222.317.353.48.432.537 1.243 1.114 1.908 1.337.921.31 1.078.279 2.002.279v1.404H7.229v-3.991zm9.035 1.185h-1.667v-1.535c0-.108.418-.526.526-.526.331 0 .505.189.614.658.2 0 1.278-.027 1.42.028.574.222.103 1.376-.893 1.376zm8.51-1.053c0-.443.702-.443.702 0s-.702.443-.702 0zm-8.729-1.447c.176-.047 1.27-.769 2.247.209.728.728.622 1.959-.047 2.518-.349.293-.731.475-1.368.475v-.088c.492-.041 1.228-.806 1.228-1.535 0-1.316-.985-1.184-1.886-1.184a9.4619 9.4619 0 0 1-.089-.174c-.041-.083-.052-.143-.087-.22zm-1.93-1.053.428-.449c.444.308.427.449 1.063.449.529 0 1.096-.517 1.096-1.053v-.307h.702v.307c0 .557.537 1.053 1.228 1.053.52 0 .625-.24.921-.439l.449.428c-.263.386-.449.38-.449 1.019 0 .576.504 1.14 1.053 1.14h.307v.702h-.307c-.518 0-1.053.488-1.053 1.228 0 .52.24.625.439.921l-.428.449c-.386-.263-.38-.449-1.019-.449-.575 0-1.14.491-1.14 1.053v.307h-.702v-.307c0-.518-.488-1.053-1.228-1.053-.52 0-.625.24-.921.439l-.493-.472c.285-.156.537-.289.537-.712 1.29 0 .541.091 1.377.465 1.801.805 3.535-.551 3.535-2.088v-.263c0-1.195-1.129-2.325-2.325-2.325-.713 0-1.201.132-1.715.565-.405.341-.056-.1-.916.356 0-.59-.213-.628-.439-.965zm-4.035-1.404c.148.071.438.044.658.044.031.116.965 1.443.965 2.763-.561-.131-.994-.406-1.258-.935-.132-.264-.364-1.559-.364-1.872zm-1.799-1.008c.251 0 .571.163.714.295.453.418.421 1.681.63 2.441.139.504.387.915.774 1.243.334.282.883.583 1.479.583h2.018v2.105c-.995 0-2.786.091-3.636-.18-.337-.108-.75-.29-1.014-.477-1.667-1.183-1.616-2.359-1.905-4.148-.095-.591-.256-1.258.343-1.669.107-.073.441-.193.597-.193zm16.142-2.632-.473-.448-.502.526 1.008.985 1.476-1.746c.082-.107.144-.17.245-.238v2.5h-3.509v-3.509h3.377l-1.623 1.93zM7.581 12.491c0-.389.511-.351.702-.351 0-1.637.075-1.404 2.983-1.404.04.149.199.365.278.512.24.447.556 1.41.556 1.945 0 .159-.366.217-.488.258-.628.209-.521.017-.521.795-.727 0-1.045.075-1.447-.526l-.614.308c.074.318.423.607.701.745.465.232.653.175 1.317.175-.073.88-1.252.702-2.062.702v.702h.702c.119.51.164.883.482 1.36-.468-.039-.223-.104-.756-.604-.289-.271-.661-.405-1.13-.405v-3.114c0-.436-.702-.663-.702-1.097zm8.772.877-.473-.448-.502.526 1.008.985 1.37-1.546v2.062h-2.807V12.14h2.456c-.16.24-.892.989-1.053 1.228zm-8.772-1.886c-.531.281-.702.481-.702 1.14 0 .315.214.59.383.757.369.365.319.186.319.866-.445-.298-.876-.6-1.198-1.039-.438-.598-.756-1.779-.425-2.47h1.798c-.122.23-.175.389-.175.746zm10.395-.044h-1.623c0-2.853-.102-1.894.406-2.401.124-.124.197-.406.34-.406h2.763v2.105h4.211v1.404h-2.105v4.913h2.807v4.167c0 .143-.282.216-.406.34s-.197.406-.34.406h-2.412v-.702c-.418 0-1.005.075-1.217-.143-.479-.491.424-.973.647-1.305l-1.525-1.502c-.134.194-.703.8-.932.8-.653 0-.482-.927-.482-1.36h-.702v-2.105h1.053V12.14c0-.122.381-.477.47-.583l.495-.601c-.111-.074-.152-.133-.251-.231-.106-.104-.16-.13-.275-.207-.278.186-.737.921-.921.921zm2.588-5.614h4.913v4.211h-4.913V5.824zM5.826 9.333h7.018v.702H5.826v-.702zm5.615-1.404h.351c.155 0 .144.158.177.305.028.128.056.269.086.396h-.614v-.702zm-2.808-.701h.702v1.404h-.702V7.228zm-2.631.701h.526v.702H5.87c.021-.247.126-.46.132-.702zm9.649.351c0-.443.702-.443.702 0s-.702.443-.702 0zM7.932 7.14v1.491H7.23c0-.681.152-1.404-.833-1.404.084-.314.725-.801 1-.974.636-.4 1.581-.542 2.384-.304.757.224 1.314.63 1.748 1.278-.943 0-.789.792-.789 1.404h-.702V7.14c0-.274-.34-.614-.614-.614h-.877c-.274 0-.614.34-.614.614zM5.124 9.026v1.097c0 .267.165.191.101.49-.259 1.198-.049 2.325.743 3.228.31.353.348.409.78.711.108.076.833.522.833.658v1.535c0 .129-.052.109-.142.165-.486.301-.91.765-.91 1.414v8.553h5.965v-2.105c.765 0 .475-.074 1.283.735.204.204.641.595.779.8.332-.222.814-1.126 1.305-.647.218.212.143.799.143 1.217h2.105c0-.418-.075-1.005.143-1.217.322-.314.602-.034.833.197.152.153.312.277.428.45l1.546-1.524c-.194-.134-.8-.704-.8-.932 0-.087.087-.283.143-.34.212-.218.799-.143 1.217-.143v-.702h2.412c.18 0 .145.227.387.446.537.485 1.762.34 1.762-.885 0-.224-.127-.463-.236-.597-.211-.259-.466-.228-.466-.411v-4.167h1.404v-4.913h-2.105v-1.404h1.404V5.121h-6.316v2.807h-2.763c-.257 0-.166-.702-1.184-.702-.744 0-1.319.999-.722 1.731.078.096.137.142.233.205.11.071.226.078.226.213v2.062h-1.404v4.211h2.456v2.105h-.702c0 .417.164 1.36-.482 1.36-.303 0-.722-.627-.965-.79l-1.48 1.502c.209.319 1.115.802.636 1.294-.214.22-.831.143-1.261.143 0-.432-.171-1.072-.272-1.438-.248-.895-.679-1.546-1.226-2.24-.212-.269-.484-.807-.52-1.235 1.368-.319 1.36-1.124 1.36-2.193.161-.038 1.053-.276 1.053-.439 0-.857-.13-1.692-.482-2.413l-.263-.57c.3 0 .716.061.981-.028.596-.201.467-.883.467-1.463 0-.269-.277-.614-.746-.614-.243-1.041-.366-1.616-1.151-2.401-.6-.6-1.554-1.107-2.489-1.107-1.332 0-1.838.236-2.757.971-.821.657-1.278 1.846-1.278 2.932z"></path>
      <path d="m22.318 8.456-.473-.448-.502.526 1.008.985 1.009-1.205c.07-.079.096-.093.167-.184.28-.36.964-1.094 1.159-1.385-.05-.068-.402-.394-.57-.439-.131.195-.281.345-.432.533-.346.429-1.081 1.191-1.366 1.616z"></path>
    </symbol>
    <symbol id="arrow-up" viewBox="0 0 54 32">
      <path d="M27 1.849l25.074 23.983c1.197 1.145 1.24 3.044 0.094 4.242s-3.044 1.24-4.242 0.094l-20.926-20.017-20.926 20.017c-1.197 1.145-3.096 1.103-4.242-0.094s-1.103-3.096 0.094-4.242l25.074-23.983z"></path>
    </symbol>
  </defs>
</svg>
