<svg width="34" height="14" fill="none" xmlns="http://www.w3.org/2000/svg"><path d="M.597 14V0h6.62c1.547 0 2.907.287 4.08.86 1.174.573 2.087 1.38 2.74 2.42.667 1.04 1 2.28 1 3.72 0 1.427-.333 2.667-1 3.72-.653 1.04-1.566 1.847-2.74 2.42-1.173.573-2.533.86-4.08.86H.597Zm3.96-3.16h2.5c.8 0 1.494-.147 2.08-.44a3.345 3.345 0 0 0 1.4-1.32c.334-.587.5-1.28.5-2.08 0-.813-.166-1.507-.5-2.08a3.22 3.22 0 0 0-1.4-1.3c-.586-.307-1.28-.46-2.08-.46h-2.5v7.68ZM17.121 14V0h3.26l5.8 9.52h-1.72L30.1 0h3.26l.04 14h-3.64l-.04-8.46h.62l-4.22 7.08h-1.76l-4.34-7.08h.76V14h-3.66Z" fill="#1F1F1F"/></svg>