<svg aria-hidden="true" style="position: absolute; width: 0; height: 0; overflow: hidden;" version="1.1" xmlns="http://www.w3.org/2000/svg" xmlns:xlink="http://www.w3.org/1999/xlink">
<defs>
<symbol id="icon-calculation" viewBox="0 0 32 32">
<path d="M16.337 25.746v-10.482c0-0.474 0.355-0.919 0.797-0.919h8.030c0.441 0 0.797 0.446 0.797 0.919v10.482c0 0.254-0.181 0.509-0.341 0.639-0.184 0.15-0.452 0.219-0.762 0.219h-7.417c-0.613 0-1.103-0.351-1.103-0.858zM15.479 14.897c-0.858 0-1.716 0.002-2.575 0-0.475-0.001-0.866-0.076-1.033 0.261-0.168 0.338 0.107 0.659 0.482 0.659h3.065v2.452h-2.942c-0.883 0-0.813 0.919-0.184 0.919h3.126v2.513h-3.249c-0.39 0-0.556 0.858 0.123 0.858h3.126v2.758h-8.152c-0.359 0-0.724-0.069-0.933-0.232-0.189-0.148-0.354-0.488-0.354-0.81v-14.343h2.574c1.151 0 1.961-0.81 1.961-1.961v-2.574h8.459c0.613 0 1.103 0.351 1.103 0.858v7.172h-2.82c-0.969 0-1.592 0.675-1.777 1.47zM6.653 9.012l2.927-2.957c0.015 0.505 0.015 0.996 0.015 1.486 0.001 1.323-0.148 1.472-1.471 1.471-0.49-0-0.98 0-1.471 0zM5.12 9.38v15.079c0 0.848 0.664 1.473 1.337 1.666 0.467 0.134 8.206 0.050 9.083 0.050 0.050 0.598 0.859 1.287 1.532 1.287h8.152c0.877 0 1.655-0.869 1.655-1.961v-10.114c0-0.276-0.052-0.586-0.128-0.791-0.251-0.675-0.954-1.17-1.711-1.17h-4.046v-7.049c0-0.507-0.227-0.961-0.475-1.242-0.231-0.262-0.72-0.597-1.18-0.597h-9.378c-0.203 0-2.292 2.2-2.467 2.375-0.413 0.413-0.782 0.782-1.195 1.195-0.182 0.182-1.18 1.095-1.18 1.272z"></path>
<path d="M18.115 16.245h6.068v2.207h-6.068v-2.207zM17.195 16.122v2.329c0 0.442 0.309 0.858 0.735 0.858h6.436c0.437 0 0.736-0.398 0.736-0.858v-2.329c0-0.246-0.198-0.518-0.353-0.627-0.174-0.123-0.523-0.169-0.811-0.169h-5.578c-0.563 0-1.165 0.191-1.165 0.797z"></path>
<path d="M23.754 21.088h0.613v3.678h-0.613v-3.678zM22.834 21.026v3.862c0 1.087 2.391 1.058 2.391 0.122v-4.168c0-0.798-1.124-0.674-1.532-0.674-0.51 0-0.858 0.348-0.858 0.858z"></path>
<path d="M12.353 9.319h5.455c0.864 0 0.753-0.919 0.123-0.919h-5.639c-0.679 0-0.59 0.919 0.061 0.919z"></path>
<path d="M12.598 12.445h5.087c1.141 0 0.723-0.919 0.368-0.919h-5.762c-0.576 0-0.814 0.919 0.307 0.919z"></path>
<path d="M17.931 21.088h0.613v0.613h-0.613v-0.613zM17.073 20.842c0 1.124-0.232 1.778 1.226 1.778 0.288 0 0.637-0.046 0.811-0.169 0.454-0.321 0.353-0.846 0.353-1.424 0-0.98-0.942-0.858-1.532-0.858-0.419 0-0.858 0.27-0.858 0.674z"></path>
<path d="M17.931 24.152h0.613v0.613h-0.613v-0.613zM17.073 23.968c0 1.488-0.12 1.716 1.471 1.716 1.059 0 0.919-0.942 0.919-1.594 0-0.912-0.894-0.858-1.41-0.858-0.517 0-0.981 0.243-0.981 0.735z"></path>
<path d="M20.812 21.088h0.674v0.613h-0.674v-0.613zM19.954 20.904c0 1.025-0.185 1.716 1.226 1.716 1.376 0 1.165-0.751 1.165-1.716 0-0.841-1.030-0.735-1.532-0.735-0.46 0-0.858 0.299-0.858 0.735z"></path>
<path d="M20.812 24.152h0.674v0.613h-0.674v-0.613zM19.954 23.968c0 1.549-0.050 1.716 1.532 1.716 1.042 0 0.858-1.009 0.858-1.716 0-1.027-2.391-0.989-2.391 0z"></path>
<path d="M9.227 18.574c-0.309-0.207-0.34-0.49-0.797-0.49-0.173 0-0.368 0.256-0.368 0.429 0 0.316 0.295 0.509 0.475 0.689 0.784 0.784 0.833 0.546 1.563-0.184 0.271-0.271 0.598-0.455 0.598-0.873 0-0.199-0.267-0.368-0.49-0.368-0.246 0-0.754 0.645-0.981 0.797z"></path>
<path d="M9.227 15.203c-0.371-0.248-0.26-0.491-0.797-0.491-0.157 0-0.368 0.17-0.368 0.491 0 0.105 0.853 1.103 1.165 1.103 0.336 0 1.471-1.135 1.471-1.471 0-0.286-0.143-0.429-0.429-0.429-0.402 0-0.749 0.6-1.042 0.797z"></path>
<path d="M9.227 22.007c-0.577-0.862-1.165-0.522-1.165-0.123 0 0.27 0.889 1.365 1.34 1.162 0.057-0.026 1.296-1.103 1.296-1.407 0-0.262-0.189-0.491-0.429-0.491-0.299 0-0.788 0.688-1.042 0.858z"></path>
<path d="M9.227 11.832c-0.203-0.136-0.375-0.404-0.561-0.488-0.242-0.109-0.603 0.069-0.603 0.365 0 0.362 0.956 1.226 1.165 1.226 0.37 0 0.98-0.819 1.152-0.994 0.175-0.179 0.319-0.188 0.319-0.477 0-0.481-0.333-0.429-0.552-0.429-0.194 0-0.719 0.663-0.919 0.797z"></path>
</symbol>
<symbol id="icon-communication" viewBox="0 0 32 32">
<path d="M10.572 19.892c-0.012 0.52-0.636 0.984-1.051 0.47-0.125-0.155-0.155-0.295-0.239-0.47h1.29zM7.813 17.061c0-1.426 1.498-2.577 3.008-1.928 1.020 0.438 1.553 1.688 1.068 2.796-0.729 1.666-3.173 1.626-3.88-0-0.087-0.2-0.196-0.61-0.196-0.867zM12.441 22.281v3.981h-4.983v-4.246h-0.712v4.246h-1.068v-3.008c0-1.258 0.591-2.398 1.69-2.964 0.307-0.158 0.74-0.353 1.202-0.353 0.014 0.614 0.652 1.371 1.29 1.371 0.937 0 1.448-0.776 1.513-1.548 2.028-0.47 2.578-1.213 3.815-2.444 0.314-0.312 2.092-2.171 2.399-2.305 0.301-0.132 0.638-0.025 0.8 0.253 0.316 0.54-0.196 0.88-0.551 1.234-0.602 0.598-5.053 4.96-5.188 5.193-0.088 0.152-0.207 0.379-0.207 0.591zM7.101 16.885c0 1.683 0.687 1.889 1.023 2.388-0.758 0-1.665 0.698-2.17 1.204-0.451 0.452-0.989 1.487-0.989 2.378v4.114h8.187v-4.467c0-0.456 0.388-0.717 0.634-0.962 0.582-0.579 5.072-4.992 5.194-5.187 0.609-0.972-0.089-2.122-1.067-2.122-0.862 0-1.056 0.409-1.657 1.006-0.606 0.603-2.576 2.644-3.148 3.019-0.191 0.125-0.565 0.387-0.801 0.442 0.141-0.527 0.489-0.432 0.489-1.813 0-1.336-1.326-2.654-2.67-2.654h-0.356c-1.344 0-2.67 1.318-2.67 2.654z"></path>
<path d="M8.525 11.975v-3.273c0-0.556 0.286-0.84 0.845-0.84h6.273v3.317c0 0.259 0.11 0.549 0.213 0.718 0.048 0.079 0.125 0.194 0.18 0.263 0.087 0.108 0.152 0.142 0.23 0.258-0.173 0.256-0.313 0.381-0.711 0.399-0.189 0.008-0.393-0.008-0.583-0.004-0.239 0.005-0.265 0.060-0.415 0.162-0.21 0.144-1.258 0.863-1.406 0.903v-1.062h-3.782c-0.545 0-0.845-0.298-0.845-0.84zM16.356 10.958v-4.069c0-0.686 0.466-1.15 1.157-1.15h7.653c0.681 0 1.157 0.473 1.157 1.15v4.069c0 0.677-0.476 1.15-1.157 1.15h-4.894v1.062c-0.169-0.045-0.74-0.461-0.925-0.584-0.587-0.389-0.571-0.484-1.076-0.478-0.728 0.007-1.914 0.105-1.914-1.149zM15.644 6.667v0.487h-6.496c-0.687 0-1.335 0.644-1.335 1.327v3.715c0 0.71 0.701 1.327 1.29 1.327h3.337v1.725c0.342-0.18 0.711-0.457 1.050-0.681 0.362-0.24 0.692-0.458 1.041-0.69 0.083-0.055 0.434-0.306 0.511-0.332 0.241-0.082 0.593 0.011 0.858-0.032 0.381-0.062 0.899-0.409 0.989-0.742 0.227 0 0.377 0.046 0.667 0.044 0.865-0.004 0.663-0.092 1.202 0.265l1.335 0.885c0.278 0.184 0.596 0.421 0.89 0.575v-1.725h4.405c0.821 0 1.646-0.821 1.646-1.636v-4.512c0-0.816-0.825-1.637-1.646-1.637h-8.098c-0.821 0-1.646 0.821-1.646 1.637z"></path>
<path d="M21.873 24.846h-4.182c-0.817 0-0.817-1.062 0-1.062h3.96c0.005-0.207 0.566-2.228 0.673-2.515 0.206-0.554 0.624-1.027 1.177-1.218 0.604-0.209 0.99-0.212 1.57 0.023 0.409 0.165 0.654 0.409 0.895 0.747 0.257 0.359 0.355 0.841 0.355 1.327v4.114h-4.627v-0.708c0.408 0 0.723 0.031 1.076-0.214 0.596-0.413 0.665-0.975 0.91-1.705l0.862-2.593-0.712-0.221-1.117 3.357c-0.133 0.401-0.293 0.668-0.84 0.668zM20.983 17.062c0-0.524 0.248-1.098 0.61-1.472 1.305-1.351 3.661-0.382 3.661 1.472 0 0.793-0.525 1.611-1.264 1.928-1.123 0.483-2.377-0.060-2.812-1.062-0.087-0.2-0.196-0.61-0.196-0.867zM20.271 16.885c0 0.819 0.148 1.459 0.678 2.024 0.347 0.371 0.952 0.85 1.502 0.895-0.199 0.296-0.616 0.487-0.885 1.42l-0.494 1.853c-0.964 0-1.928 0-2.892 0-0.581 0-0.901-0.059-1.272 0.195-1.071 0.731-0.437 2.282 0.561 2.282h3.515v1.415h6.051v-5.175c0-0.633-0.349-1.304-0.657-1.647-0.176-0.196-0.387-0.392-0.619-0.535-0.194-0.119-0.555-0.318-0.816-0.339 0.103-0.152 0.239-0.244 0.367-0.387 0.103-0.115 0.223-0.308 0.31-0.444 0.305-0.48 0.346-0.986 0.346-1.558 0-1.336-1.326-2.654-2.669-2.654h-0.356c-1.344 0-2.67 1.318-2.67 2.654z"></path>
<path d="M17.068 9.985h8.543v-0.708h-8.543v0.708z"></path>
<path d="M17.068 11.4h8.543v-0.708h-8.543v0.708z"></path>
<path d="M17.068 8.569h7.119v-0.708h-7.119v0.708z"></path>
<path d="M19.915 7.154h5.695v-0.708h-5.695v0.708z"></path>
<path d="M9.237 10.692h5.695v-0.708h-5.695v0.708z"></path>
<path d="M9.237 12.108h5.695v-0.708h-5.695v0.708z"></path>
<path d="M10.661 9.277h4.271v-0.708h-4.271v0.708z"></path>
<path d="M17.068 7.154h0.712v-0.708h-0.712v0.708z"></path>
<path d="M18.492 7.154h0.712v-0.708h-0.712v0.708z"></path>
<path d="M24.899 8.569h0.712v-0.708h-0.712v0.708z"></path>
<path d="M9.237 9.277h0.712v-0.708h-0.712v0.708z"></path>
</symbol>
<symbol id="icon-installation" viewBox="0 0 32 32">
<path d="M13.543 19.598c0-0.152 0.18-0.168 0.305-0.221 0.121-0.051 0.282-0.113 0.396-0.174v6.976h-0.702v-6.581zM6.173 25.345v-0.57h3.51c0 1.635-0.149 1.404-2.676 1.404-0.538 0-0.834-0.296-0.834-0.834zM9.946 21.265c0-0.223 0.052-0.327 0.097-0.517 0.038-0.161 0.083-0.367 0.122-0.536h0.79c-0.076 0.328-0.063 0.514-0.266 0.743-0.045 0.050 0.003 0.003-0.067 0.065-0.19 0.17-0.398 0.245-0.677 0.245zM8.849 22.844c0 0.526 0.169 0.885 0.351 1.228h-2.895l1.009-3.861h2.106c-0.081 0.349-0.57 2.326-0.57 2.632zM12.14 19.291v-3.071c0.357 0.083 1.514 0.682 1.755 0.702v1.667c-0.163 0.013-0.713 0.277-0.879 0.35l-0.876 0.352zM5.822 17.755c0-0.806 0.577-1.518 1.404-1.711v1.711h0.702v-1.755h0.702v1.755h0.702v-1.755h0.702v1.755h0.702v-1.755h0.702v3.51h-3.773c-0.245 0-0.554-0.069-0.741-0.136-0.636-0.23-1.101-0.942-1.101-1.619zM15.167 18.457h-0.57v-1.404h0.57c1.097 0 1.097 1.404 0 1.404zM14.947 7.226h9.827v18.952h-9.827v-7.019c0.489 0 0.855 0.040 1.284-0.34 0.21-0.186 0.356-0.405 0.428-0.713h2.15v-0.702h-2.15c-0.072-0.309-0.218-0.527-0.428-0.713-0.428-0.379-0.795-0.34-1.284-0.34v-9.125zM14.246 16.307c-0.307-0.163-0.702-0.217-0.702-0.395v-10.090h12.635v20.356h-0.702v-19.303c0-0.212-0.139-0.351-0.351-0.351h-10.529c-0.439 0-0.351 0.451-0.351 0.877l-0 8.906zM12.842 15.693c-0.331-0.077-0.783-0.395-1.097-0.395h-4.299c-1.195 0-2.325 1.13-2.325 2.325 0 1.212 0.489 1.883 1.492 2.413-0.229 0.984-0.603 2.252-0.878 3.29-0.051 0.191-0.088 0.356-0.147 0.555-0.179 0.612-0.116 0.975-0.116 1.683 0 0.374 0.191 0.692 0.382 0.89 0.179 0.185 0.55 0.426 0.89 0.426h2.369c0.609 0 1.272-0.663 1.272-1.272v-1.184c0-0.466-0.79-0.352-0.79-1.623 0-0.17 0.123-0.725 0.175-0.834 0.788 0 1.313-0.128 1.697-0.891 0.386-0.767-0.078-0.768 0.431-0.886 0.357-0.083 0.614-0.296 0.943-0.373l-0.001 6.45c-0.003 0.355 0.003 0.613 0.351 0.613h13.337c0.212 0 0.351-0.139 0.351-0.351v-21.058c0-0.212-0.139-0.351-0.351-0.351h-13.337c-0.463 0-0.351 0.546-0.351 1.009l0 9.564z"></path>
<path d="M20.212 12.49h2.457v2.457h-2.457v-2.457zM17.053 12.49h2.457v2.457h-2.457v-2.457zM20.212 9.375c1.104 0.025 2.388 1.306 2.413 2.413h-2.413v-2.413zM19.51 9.375v2.413h-2.413c0.025-1.104 1.306-2.388 2.413-2.413zM16.351 11.963v3.334c0 0.212 0.139 0.351 0.351 0.351h6.317c0.212 0 0.351-0.139 0.351-0.351v-3.334c0-1.714-1.62-3.334-3.334-3.334-1.159 0-1.941 0.295-2.665 1.020-0.488 0.488-1.020 1.359-1.020 2.314z"></path>
<path d="M20.212 22.668h2.457v1.755h-2.457v-1.755zM17.053 22.668h2.457v1.755h-2.457v-1.755zM20.212 20.211h2.457v1.755h-2.457v-1.755zM17.053 20.211h2.457v1.755h-2.457v-1.755zM16.351 19.86v4.913c0 0.212 0.139 0.351 0.351 0.351h6.317c0.212 0 0.351-0.139 0.351-0.351v-4.913c0-0.212-0.139-0.351-0.351-0.351h-6.317c-0.212 0-0.351 0.139-0.351 0.351z"></path>
</symbol>
<symbol id="icon-measure" viewBox="0 0 32 32">
<path d="M19.48 11.198h5.974v9.163h-5.974v-9.163zM14.674 16.498h1.348v3.863h-1.348v-3.863zM13.686 16.229v4.133h-1.572v-9.163h6.423v9.163h-1.572v-4.267c0-0.417-0.254-0.584-0.674-0.584h-1.977c-0.447 0-0.628 0.269-0.628 0.719zM15.303 6.885c0.165 0.111 2.144 2.605 2.406 2.939 0.121 0.154 0.234 0.28 0.334 0.43h-5.39c0.55-0.822 2.124-2.582 2.65-3.369zM16.336 6.571h5.66l2.92 3.684-5.348 0.002c-0.375 0.004-0.339-0.026-0.511-0.252-0.36-0.473-2.581-3.171-2.721-3.434zM11.17 10.703v10.107c0 0.127 0.079 0.278 0.144 0.35 0.094 0.104 0.209 0.144 0.395 0.144h14.15c0.368 0 0.539-0.222 0.539-0.584v-9.927c0-0.325-0.689-1.087-0.937-1.398l-2.597-3.242c-0.186-0.229-0.335-0.525-0.643-0.525h-6.917c-0.296 0-0.44 0.27-0.623 0.5l-2.556 3.194c-0.185 0.226-0.333 0.42-0.518 0.649-0.135 0.167-0.436 0.48-0.436 0.733z"></path>
<path d="M5.6 7.514c0 0.138 0.162 0.449 0.494 0.449 0.362 0 0.645-0.504 0.898-0.674v17.429c-0.234-0.157-0.453-0.501-0.675-0.63-0.321-0.186-0.718 0.079-0.718 0.405 0 0.253 0.651 0.809 0.842 0.999 1.229 1.23 0.831 1.258 2.515-0.427 0.124-0.124 0.752-0.613 0.184-0.971-0.166-0.104-0.33-0.097-0.485-0.007-0.222 0.129-0.441 0.473-0.675 0.63v-17.429c0.473 0.25 0.49 0.674 0.943 0.674 0.257 0 0.449-0.201 0.449-0.494 0-0.254-0.58-0.737-0.842-0.999-0.831-0.831-0.924-1.167-1.617-0.472-0.274 0.275-1.313 1.175-1.313 1.516z"></path>
<path d="M13.506 25.886c0-0.327-0.513-0.659-0.674-0.898h11.904c-0.165 0.247-0.663 0.549-0.698 0.866-0.046 0.417 0.495 0.692 0.868 0.338l1.189-1.192c0.574-0.568 0.313-0.608-0.561-1.483-0.487-0.487-1.008-1.245-1.421-0.633-0.32 0.475 0.392 0.816 0.623 1.161h-11.949c0.159-0.238 0.719-0.591 0.719-0.898 0-0.24-0.231-0.494-0.449-0.494-0.309 0-0.86 0.658-1.157 0.955-1.087 1.087-1.063 0.757 0.449 2.268 0.16 0.16 0.351 0.427 0.599 0.482 0.287 0.064 0.558-0.186 0.558-0.471z"></path>
<path d="M21.771 13.489h1.348v1.348h-1.348v-1.348zM20.828 13.040v2.201c0 0.29 0.168 0.539 0.449 0.539h2.381c0.371 0 0.449-0.386 0.449-0.764 0-0.406 0.057-1.968-0.088-2.247-0.057-0.11-0.24-0.223-0.406-0.223h-2.336c-0.248 0-0.449 0.259-0.449 0.494z"></path>
</symbol>
<symbol id="icon-project" viewBox="0 0 32 32">
<path d="M11.437 25.827h9.125v0.351h-9.125v-0.351zM13.806 23.37h4.387c0.017 0.204 0.169 0.636 0.235 0.862 0.090 0.312 0.177 0.589 0.248 0.893h-5.352c0.069-0.296 0.152-0.553 0.238-0.858l0.244-0.896zM5.822 22.054v-0.79h20.356c0 0.669 0.139 1.404-0.614 1.404h-19.128c-0.384 0-0.614-0.23-0.614-0.614zM5.822 8.893c0-0.384 0.23-0.614 0.614-0.614h19.128c0.384 0 0.614 0.23 0.614 0.614v11.67h-20.356l0-11.67zM5.12 8.674v13.6c0 0.545 0.586 1.087 1.139 1.099 2.092 0.044 4.67-0.002 6.802-0.002-0.069 0.296-0.152 0.553-0.238 0.858l-0.244 0.896c-0.366 0-0.731 0.001-1.097-0-0.882-0.002-0.746-0.021-0.746 1.404 0 0.212 0.139 0.351 0.351 0.351h9.827c0.491 0 0.351-0.656 0.351-1.404 0-0.4-0.351-0.352-0.746-0.351-0.366 0.001-0.731 0-1.097 0l-0.483-1.755 6.758 0.002c0.587-0.003 1.182-0.535 1.182-1.099v-13.6c0-0.514-0.583-1.097-1.097-1.097h-19.566c-0.514 0-1.097 0.582-1.097 1.097z"></path>
<path d="M12.9 16.709c0.475-0.008 0.839-0.112 1.169-0.271l0.658 1.316h-2.325l0.498-1.045zM13.324 15.912c0.044-0.191 0.131-0.248 0.175-0.439h0.088c0.039 0.167 0.093 0.184 0.132 0.351-0.187 0.016-0.208 0.072-0.395 0.088zM10.736 13.894c0-1.806 2.238-2.831 3.587-1.481 1.016 1.016 0.569 2.555 0.010 2.929-0.258-0.488-0.425-1.097-0.79-1.097-0.29 0-0.351 0.241-0.508 0.545l-0.354 0.698c-0.085 0.17-0.152 0.313-0.234 0.468-0.286-0.137-1.176-0.267-1.542-1.265-0.068-0.185-0.169-0.538-0.169-0.796zM10.034 13.719c0 0.808 0.136 1.41 0.647 1.985 0.347 0.39 0.832 0.775 1.415 0.911-0.031 0.376-1.204 1.843-0.307 1.843h3.51c0.757 0 0.032-1.121-0.102-1.389-0.177-0.354-0.334-0.688-0.512-1.024 0.21-0.314 0.965-0.826 0.965-2.062 0-1.233-0.606-2.126-1.593-2.618-1.227-0.613-2.711-0.196-3.509 0.894-0.283 0.386-0.513 0.938-0.513 1.461z"></path>
<path d="M20.519 6.524h-7.326v-0.702h7.326c0.196 0 0.395 0.178 0.395 0.351s-0.199 0.351-0.395 0.351zM11.613 6.129c0.362-0.084 0.406-0.307 0.877-0.307v0.702c-0.472 0-0.515-0.223-0.877-0.307v-0.088zM10.385 6.173c0 0.346 0.6 0.522 1.021 0.734l0.345 0.182c0.144 0.075 0.217 0.137 0.433 0.137h8.467c0.537 0 0.965-0.461 0.965-1.141 0-0.483-0.483-0.965-0.965-0.965h-8.467c-0.24 0-0.313 0.079-0.522 0.18l-0.934 0.47c-0.178 0.086-0.343 0.15-0.343 0.403z"></path>
<path d="M19.817 17.097c-0.165-0.014-0.253-0.067-0.413-0.113l-2.072-0.604c-0.297-0.085-0.566-0.182-0.849-0.248 0.021-0.252 0.839-2.792 0.965-3.334 0.222 0.018 0.59 0.164 0.824 0.229l2.51 0.736-0.965 3.334zM15.649 16.395c0 0.33 0.574 0.419 0.96 0.532 0.371 0.108 0.787 0.224 1.151 0.34l2.32 0.664c0.33 0 0.419-0.574 0.532-0.96l0.678-2.305c0.46-1.627 0.815-1.282-1.785-2.038l-2.32-0.663c-0.33 0-0.419 0.574-0.532 0.96l-1.004 3.471z"></path>
<path d="M7.226 10.384h0.702v0.702h-0.702v-0.702zM6.524 10.034v1.404c0 0.212 0.139 0.351 0.351 0.351h1.404c0.212 0 0.351-0.139 0.351-0.351v-1.404c0-0.212-0.139-0.351-0.351-0.351h-1.404c-0.212 0-0.351 0.139-0.351 0.351z"></path>
<path d="M24.072 10.384h0.702v0.702h-0.702v-0.702zM23.37 10.034v1.404c0 0.212 0.139 0.351 0.351 0.351h1.404c0.212 0 0.351-0.139 0.351-0.351v-1.404c0-0.212-0.139-0.351-0.351-0.351h-1.404c-0.212 0-0.351 0.139-0.351 0.351z"></path>
<path d="M7.226 12.841h0.702v0.702h-0.702v-0.702zM6.524 12.49v1.404c0 0.212 0.139 0.351 0.351 0.351h1.404c0.212 0 0.351-0.139 0.351-0.351v-1.404c0-0.212-0.139-0.351-0.351-0.351h-1.404c-0.212 0-0.351 0.139-0.351 0.351z"></path>
<path d="M24.072 12.841h0.702v0.702h-0.702v-0.702zM23.37 12.49v1.404c0 0.212 0.139 0.351 0.351 0.351h1.404c0.212 0 0.351-0.139 0.351-0.351v-1.404c0-0.212-0.139-0.351-0.351-0.351h-1.404c-0.212 0-0.351 0.139-0.351 0.351z"></path>
<path d="M7.226 15.298h0.702v0.702h-0.702v-0.702zM6.524 14.947v1.404c0 0.212 0.139 0.351 0.351 0.351h1.404c0.212 0 0.351-0.139 0.351-0.351v-1.404c0-0.212-0.139-0.351-0.351-0.351h-1.404c-0.212 0-0.351 0.139-0.351 0.351z"></path>
<path d="M24.072 15.298h0.702v0.702h-0.702v-0.702zM23.37 14.947v1.404c0 0.212 0.139 0.351 0.351 0.351h1.404c0.212 0 0.351-0.139 0.351-0.351v-1.404c0-0.212-0.139-0.351-0.351-0.351h-1.404c-0.212 0-0.351 0.139-0.351 0.351z"></path>
<path d="M24.072 17.755h0.702v0.702h-0.702v-0.702zM23.37 17.404v1.404c0 0.212 0.139 0.351 0.351 0.351h1.404c0.212 0 0.351-0.139 0.351-0.351v-1.404c0-0.212-0.139-0.351-0.351-0.351h-1.404c-0.212 0-0.351 0.139-0.351 0.351z"></path>
<path d="M7.226 17.755h0.702v0.702h-0.702v-0.702zM6.524 17.404v1.404c0 0.212 0.139 0.351 0.351 0.351h1.404c0.212 0 0.351-0.139 0.351-0.351v-1.404c0-0.212-0.139-0.351-0.351-0.351h-1.404c-0.212 0-0.351 0.139-0.351 0.351z"></path>
</symbol>
<symbol id="icon-working-process" viewBox="0 0 32 32">
<path d="M7.23 22.184l0.298 0.491c0.114 0.183 0.222 0.317 0.353 0.48 0.432 0.537 1.243 1.114 1.908 1.337 0.921 0.31 1.078 0.279 2.002 0.279v1.404h-4.562l0-3.991zM16.265 23.369h-1.667v-1.535c0-0.108 0.418-0.526 0.526-0.526 0.331 0 0.505 0.189 0.614 0.658 0.2 0 1.278-0.027 1.42 0.028 0.574 0.222 0.103 1.376-0.893 1.376zM24.775 22.316c0-0.443 0.702-0.443 0.702 0s-0.702 0.443-0.702 0zM16.046 20.869c0.176-0.047 1.27-0.769 2.247 0.209 0.728 0.728 0.622 1.959-0.047 2.518-0.349 0.293-0.731 0.475-1.368 0.475v-0.088c0.492-0.041 1.228-0.806 1.228-1.535 0-1.316-0.985-1.184-1.886-1.184-0.031-0.059-0.059-0.114-0.089-0.174-0.041-0.083-0.052-0.143-0.087-0.22zM14.116 19.816l0.428-0.449c0.444 0.308 0.427 0.449 1.063 0.449 0.529 0 1.096-0.517 1.096-1.053v-0.307h0.702v0.307c0 0.557 0.537 1.053 1.228 1.053 0.52 0 0.625-0.24 0.921-0.439l0.449 0.428c-0.263 0.386-0.449 0.38-0.449 1.019 0 0.576 0.504 1.14 1.053 1.14h0.307v0.702h-0.307c-0.518 0-1.053 0.488-1.053 1.228 0 0.52 0.24 0.625 0.439 0.921l-0.428 0.449c-0.386-0.263-0.38-0.449-1.019-0.449-0.575 0-1.14 0.491-1.14 1.053v0.307h-0.702v-0.307c0-0.518-0.488-1.053-1.228-1.053-0.52 0-0.625 0.24-0.921 0.439l-0.493-0.472c0.285-0.156 0.537-0.289 0.537-0.712 1.29 0 0.541 0.091 1.377 0.465 1.801 0.805 3.535-0.551 3.535-2.088v-0.263c0-1.195-1.129-2.325-2.325-2.325-0.713 0-1.201 0.132-1.715 0.565-0.405 0.341-0.056-0.1-0.916 0.356 0-0.59-0.213-0.628-0.439-0.965zM10.081 18.412c0.148 0.071 0.438 0.044 0.658 0.044 0.031 0.116 0.965 1.443 0.965 2.763-0.561-0.131-0.994-0.406-1.258-0.935-0.132-0.264-0.364-1.559-0.364-1.872zM8.282 17.404c0.251 0 0.571 0.163 0.714 0.295 0.453 0.418 0.421 1.681 0.63 2.441 0.139 0.504 0.387 0.915 0.774 1.243 0.334 0.282 0.883 0.583 1.479 0.583h2.018v2.105c-0.995 0-2.786 0.091-3.636-0.18-0.337-0.108-0.75-0.29-1.014-0.477-1.667-1.183-1.616-2.359-1.905-4.148-0.095-0.591-0.256-1.258 0.343-1.669 0.107-0.073 0.441-0.193 0.597-0.193zM24.424 14.772l-0.473-0.448-0.502 0.526 1.008 0.985 1.476-1.746c0.082-0.107 0.144-0.17 0.245-0.238v2.5h-3.509v-3.509h3.377l-1.623 1.93zM7.581 12.491c0-0.389 0.511-0.351 0.702-0.351 0-1.637 0.075-1.404 2.983-1.404 0.040 0.149 0.199 0.365 0.278 0.512 0.24 0.447 0.556 1.41 0.556 1.945 0 0.159-0.366 0.217-0.488 0.258-0.628 0.209-0.521 0.017-0.521 0.795-0.727 0-1.045 0.075-1.447-0.526l-0.614 0.308c0.074 0.318 0.423 0.607 0.701 0.745 0.465 0.232 0.653 0.175 1.317 0.175-0.073 0.88-1.252 0.702-2.062 0.702v0.702h0.702c0.119 0.51 0.164 0.883 0.482 1.36-0.468-0.039-0.223-0.104-0.756-0.604-0.289-0.271-0.661-0.405-1.13-0.405v-3.114c0-0.436-0.702-0.663-0.702-1.097zM16.353 13.368l-0.473-0.448-0.502 0.526 1.008 0.985 1.37-1.546v2.062h-2.807v-2.807h2.456c-0.16 0.24-0.892 0.989-1.053 1.228zM7.581 11.482c-0.531 0.281-0.702 0.481-0.702 1.14 0 0.315 0.214 0.59 0.383 0.757 0.369 0.365 0.319 0.186 0.319 0.866-0.445-0.298-0.876-0.6-1.198-1.039-0.438-0.598-0.756-1.779-0.425-2.47h1.798c-0.122 0.23-0.175 0.389-0.175 0.746zM17.976 11.438h-1.623c0-2.853-0.102-1.894 0.406-2.401 0.124-0.124 0.197-0.406 0.34-0.406h2.763v2.105h4.211v1.404h-2.105v4.913h2.807v4.167c0 0.143-0.282 0.216-0.406 0.34s-0.197 0.406-0.34 0.406h-2.412v-0.702c-0.418 0-1.005 0.075-1.217-0.143-0.479-0.491 0.424-0.973 0.647-1.305l-1.525-1.502c-0.134 0.194-0.703 0.8-0.932 0.8-0.653 0-0.482-0.927-0.482-1.36h-0.702v-2.105h1.053v-3.509c0-0.122 0.381-0.477 0.47-0.583l0.495-0.601c-0.111-0.074-0.152-0.133-0.251-0.231-0.106-0.104-0.16-0.13-0.275-0.207-0.278 0.186-0.737 0.921-0.921 0.921zM20.564 5.824h4.913v4.211h-4.913v-4.211zM5.826 9.333h7.018v0.702h-7.018v-0.702zM11.441 7.929h0.351c0.155 0 0.144 0.158 0.177 0.305 0.028 0.128 0.056 0.269 0.086 0.396h-0.614l0-0.702zM8.633 7.228h0.702v1.404h-0.702v-1.404zM6.002 7.929h0.526v0.702h-0.658c0.021-0.247 0.126-0.46 0.132-0.702zM15.651 8.28c0-0.443 0.702-0.443 0.702 0s-0.702 0.443-0.702 0zM7.932 7.14v1.491h-0.702c0-0.681 0.152-1.404-0.833-1.404 0.084-0.314 0.725-0.801 1-0.974 0.636-0.4 1.581-0.542 2.384-0.304 0.757 0.224 1.314 0.63 1.748 1.278-0.943 0-0.789 0.792-0.789 1.404h-0.702v-1.491c0-0.274-0.34-0.614-0.614-0.614h-0.877c-0.274 0-0.614 0.34-0.614 0.614zM5.124 9.026v1.097c0 0.267 0.165 0.191 0.101 0.49-0.259 1.198-0.049 2.325 0.743 3.228 0.31 0.353 0.348 0.409 0.78 0.711 0.108 0.076 0.833 0.522 0.833 0.658v1.535c0 0.129-0.052 0.109-0.142 0.165-0.486 0.301-0.91 0.765-0.91 1.414v8.553h5.965v-2.105c0.765 0 0.475-0.074 1.283 0.735 0.204 0.204 0.641 0.595 0.779 0.8 0.332-0.222 0.814-1.126 1.305-0.647 0.218 0.212 0.143 0.799 0.143 1.217h2.105c0-0.418-0.075-1.005 0.143-1.217 0.322-0.314 0.602-0.034 0.833 0.197 0.152 0.153 0.312 0.277 0.428 0.45l1.546-1.524c-0.194-0.134-0.8-0.704-0.8-0.932 0-0.087 0.087-0.283 0.143-0.34 0.212-0.218 0.799-0.143 1.217-0.143v-0.702h2.412c0.18 0 0.145 0.227 0.387 0.446 0.537 0.485 1.762 0.34 1.762-0.885 0-0.224-0.127-0.463-0.236-0.597-0.211-0.259-0.466-0.228-0.466-0.411v-4.167h1.404v-4.913h-2.105v-1.404h1.404v-5.614h-6.316v2.807h-2.763c-0.257 0-0.166-0.702-1.184-0.702-0.744 0-1.319 0.999-0.722 1.731 0.078 0.096 0.137 0.142 0.233 0.205 0.11 0.071 0.226 0.078 0.226 0.213v2.062h-1.404v4.211h2.456v2.105h-0.702c0 0.417 0.164 1.36-0.482 1.36-0.303 0-0.722-0.627-0.965-0.79l-1.48 1.502c0.209 0.319 1.115 0.802 0.636 1.294-0.214 0.22-0.831 0.143-1.261 0.143 0-0.432-0.171-1.072-0.272-1.438-0.248-0.895-0.679-1.546-1.226-2.24-0.212-0.269-0.484-0.807-0.52-1.235 1.368-0.319 1.36-1.124 1.36-2.193 0.161-0.038 1.053-0.276 1.053-0.439 0-0.857-0.13-1.692-0.482-2.413l-0.263-0.57c0.3 0 0.716 0.061 0.981-0.028 0.596-0.201 0.467-0.883 0.467-1.463 0-0.269-0.277-0.614-0.746-0.614-0.243-1.041-0.366-1.616-1.151-2.401-0.6-0.6-1.554-1.107-2.489-1.107-1.332 0-1.838 0.236-2.757 0.971-0.821 0.657-1.278 1.846-1.278 2.932z"></path>
<path d="M22.318 8.456l-0.473-0.448-0.502 0.526 1.008 0.985 1.009-1.205c0.070-0.079 0.096-0.093 0.167-0.184 0.28-0.36 0.964-1.094 1.159-1.385-0.050-0.068-0.402-0.394-0.57-0.439-0.131 0.195-0.281 0.345-0.432 0.533-0.346 0.429-1.081 1.191-1.366 1.616z"></path>
</symbol>
</defs>
</svg>
