<svg width="100" height="100" viewBox="0 0 100 100" fill="none" xmlns="http://www.w3.org/2000/svg">
<path fill-rule="evenodd" clip-rule="evenodd" d="M51.0543 80.4563V47.7013C51.0543 46.2209 52.1652 44.8281 53.5448 44.8281H78.6378C80.0166 44.8281 81.1275 46.2209 81.1275 47.7013V80.4563C81.1275 81.2493 80.5603 82.0477 80.0604 82.4539C79.4839 82.9234 78.648 83.1374 77.6793 83.1374H54.5018C52.5847 83.1374 51.0543 82.0414 51.0543 80.4563ZM48.3725 46.5522C45.6906 46.5522 43.0087 46.5584 40.3269 46.5522C38.8434 46.5483 37.6208 46.3131 37.0982 47.367C36.574 48.4247 37.431 49.4262 38.6035 49.4262H48.1811V57.0882H38.9871C36.2271 57.0882 36.4466 59.9615 38.4122 59.9615H48.1811V67.8149H38.0294C36.8107 67.8149 36.292 70.4968 38.4129 70.4968H48.1819V79.1166H22.7061C21.5827 79.1166 20.4422 78.9017 19.7899 78.3932C19.1985 77.9307 18.6829 76.8683 18.6829 75.8605V31.0383H26.7277C30.3259 31.0383 32.857 28.5072 32.857 24.909V16.8641H59.2906C61.2068 16.8641 62.738 17.961 62.738 19.546V41.9571H53.9268C50.8973 41.9571 48.9521 44.0664 48.3725 46.5522ZM20.7898 28.1635L29.9369 18.9218C29.9838 20.5014 29.983 22.0341 29.9838 23.5661C29.9861 27.7018 29.5221 28.1658 25.3864 28.1635C23.8537 28.1627 22.3225 28.1635 20.7898 28.1635ZM16.001 29.3126V76.4339C16.001 79.0838 18.0775 81.036 20.1797 81.6414C21.639 82.0617 45.8242 81.7977 48.5639 81.7977C48.7193 83.6663 51.2481 85.8201 53.3526 85.8201H78.8284C81.5697 85.8201 84 83.1038 84 79.6908V48.0849C84 47.2209 83.8375 46.2522 83.6 45.6116C82.8165 43.5008 80.6182 41.9548 78.2535 41.9548H65.6113V19.9265C65.6113 18.343 64.9019 16.922 64.1278 16.0462C63.4059 15.2283 61.8763 14.1799 60.4389 14.1799H31.1321C30.4986 14.1799 23.9685 21.0561 23.4224 21.6021C22.1303 22.8942 20.9788 24.0457 19.6875 25.3371C19.1188 25.9058 16.001 28.7595 16.001 29.3126Z" fill="#5959A9"/>
<path fill-rule="evenodd" clip-rule="evenodd" d="M56.6086 50.7659H75.5723V57.6616H56.6086V50.7659ZM53.7354 50.3824V57.6616C53.7354 59.0428 54.7001 60.3435 56.0336 60.3435H76.1465C77.5112 60.3435 78.4456 59.0983 78.4456 57.6616V50.3824C78.4456 49.6129 77.8253 48.7637 77.3417 48.4216C76.798 48.0372 75.7074 47.8919 74.8067 47.8919H57.3758C55.6165 47.8919 53.7354 48.4903 53.7354 50.3824Z" fill="#5959A9"/>
<path fill-rule="evenodd" clip-rule="evenodd" d="M74.2309 65.8986H76.1464V77.3917H74.2309V65.8986ZM71.3577 65.7073V77.7753C71.3577 81.1735 78.8283 81.0805 78.8283 78.1581V65.1331C78.8283 62.6387 75.3152 63.0262 74.0395 63.0262C72.4451 63.0262 71.3577 64.1128 71.3577 65.7073Z" fill="#5959A9"/>
<path fill-rule="evenodd" clip-rule="evenodd" d="M38.6027 29.1204H55.6508C58.3515 29.1204 58.0038 26.2471 56.0344 26.2471H38.4121C36.2888 26.2471 36.5669 29.1204 38.6027 29.1204Z" fill="#5959A9"/>
<path fill-rule="evenodd" clip-rule="evenodd" d="M39.3691 38.8901H55.2673C58.8335 38.8901 57.5258 36.0168 56.4165 36.0168H38.4105C36.6114 36.0168 35.8669 38.8901 39.3691 38.8901Z" fill="#5959A9"/>
<path fill-rule="evenodd" clip-rule="evenodd" d="M56.0337 65.8986H57.9492V67.8141H56.0337V65.8986ZM53.3518 65.1323C53.3518 68.6461 52.6253 70.6874 57.1828 70.6874C58.0835 70.6874 59.1741 70.5429 59.7178 70.1577C61.138 69.1531 60.8216 67.5142 60.8216 65.7072C60.8216 62.6457 57.8765 63.0254 56.0329 63.0254C54.7236 63.0254 53.3518 63.8691 53.3518 65.1323Z" fill="#5959A9"/>
<path fill-rule="evenodd" clip-rule="evenodd" d="M56.0335 75.4754H57.949V77.3909H56.0335V75.4754ZM53.3516 74.9004C53.3516 79.5501 52.9774 80.2641 57.949 80.2641C61.2597 80.2641 60.8223 77.3198 60.8223 75.284C60.8223 72.4334 58.0279 72.6021 56.4163 72.6021C54.8008 72.6021 53.3516 73.3614 53.3516 74.9004Z" fill="#5959A9"/>
<path fill-rule="evenodd" clip-rule="evenodd" d="M65.0369 65.8986H67.1438V67.8141H65.0369V65.8986ZM62.355 65.3236C62.355 68.5266 61.7769 70.6874 66.186 70.6874C70.4866 70.6874 69.8257 68.3399 69.8257 65.3236C69.8257 62.6957 66.6079 63.0253 65.0369 63.0253C63.6003 63.0253 62.355 63.9589 62.355 65.3236Z" fill="#5959A9"/>
<path fill-rule="evenodd" clip-rule="evenodd" d="M65.0369 75.4754H67.1438V77.3909H65.0369V75.4754ZM62.355 74.9004C62.355 79.7423 62.1988 80.2642 67.1438 80.2642C70.4014 80.2642 69.8257 77.1097 69.8257 74.9004C69.8257 71.692 62.355 71.81 62.355 74.9004Z" fill="#5959A9"/>
<path fill-rule="evenodd" clip-rule="evenodd" d="M28.8337 58.0444C27.8681 57.3976 27.7721 56.5117 26.3432 56.5117C25.8019 56.5117 25.1941 57.3109 25.1941 57.853C25.1941 58.842 26.1159 59.4451 26.6784 60.0076C29.1298 62.459 29.2806 61.7153 31.5632 59.4326C32.4093 58.5866 33.4311 58.0108 33.4311 56.7031C33.4311 56.082 32.5983 55.554 31.8984 55.554C31.1281 55.554 29.5415 57.571 28.8337 58.0444Z" fill="#5959A9"/>
<path fill-rule="evenodd" clip-rule="evenodd" d="M28.8337 47.5092C27.6752 46.7334 28.0213 45.9764 26.3432 45.9764C25.8519 45.9764 25.1941 46.5084 25.1941 47.5092C25.1941 47.8388 27.8588 50.9574 28.8337 50.9574C29.8852 50.9574 33.4311 47.4115 33.4311 46.36C33.4311 45.4655 32.9842 45.0195 32.0905 45.0195C30.8344 45.0195 29.7501 46.8951 28.8337 47.5092Z" fill="#5959A9"/>
<path fill-rule="evenodd" clip-rule="evenodd" d="M28.8337 68.7711C27.0299 66.0775 25.1941 67.1392 25.1941 68.3875C25.1941 69.2328 27.9728 72.6521 29.3806 72.0178C29.5587 71.9381 33.4311 68.5711 33.4311 67.6212C33.4311 66.8017 32.8405 66.0884 32.0905 66.0884C31.1547 66.0884 29.6274 68.2391 28.8337 68.7711Z" fill="#5959A9"/>
<path fill-rule="evenodd" clip-rule="evenodd" d="M28.8337 36.9746C28.2009 36.5512 27.6627 35.7106 27.0799 35.4489C26.3221 35.1083 25.1941 35.6661 25.1941 36.591C25.1941 37.7214 28.183 40.4221 28.8337 40.4221C29.9891 40.4221 31.8976 37.8628 32.4327 37.3168C32.9803 36.7574 33.4311 36.7293 33.4311 35.8247C33.4311 34.3201 32.389 34.4841 31.707 34.4841C31.1008 34.4841 29.4587 36.5559 28.8337 36.9746Z" fill="#5959A9"/>
</svg>
