<svg width="100" height="100" viewBox="0 0 100 100" fill="none" xmlns="http://www.w3.org/2000/svg">
<path fill-rule="evenodd" clip-rule="evenodd" d="M42.3232 61.2428C42.3232 60.7663 42.8843 60.7184 43.2778 60.5524C43.656 60.3933 44.1581 60.1983 44.5165 60.0092V81.8079H42.3232V61.2428ZM19.2909 79.2022V77.4203H30.2587C30.2587 82.5308 29.7933 81.8079 21.8958 81.8079C20.2148 81.8079 19.2909 80.8832 19.2909 79.2022ZM31.0816 66.4525C31.0816 65.757 31.2433 65.4302 31.3845 64.8357C31.5042 64.3336 31.6437 63.6903 31.7669 63.1616H34.2348C33.9962 64.1881 34.0381 64.769 33.4042 65.4841C33.2639 65.6415 33.4136 65.4935 33.1963 65.6877C32.6018 66.2198 31.9516 66.4525 31.0816 66.4525ZM27.6538 71.3876C27.6538 73.0301 28.1825 74.1533 28.7505 75.226H19.7024L22.8556 63.1616H29.4358C29.1817 64.2514 27.6538 70.4304 27.6538 71.3876ZM37.9364 60.283V50.6865C39.0528 50.9466 42.6679 52.8174 43.4198 52.8799V58.0896C42.91 58.1315 41.1905 58.9562 40.6738 59.1829L37.9364 60.283ZM18.1942 55.4847C18.1942 52.9646 19.9984 50.7395 22.5819 50.1382V55.4847H24.7752V50.0013H26.9686V55.4847H29.162V50.0013H31.3554V55.4847H33.5488V50.0013H35.7422V60.9691H23.9514C23.185 60.9691 22.2191 60.7535 21.6357 60.543C19.6494 59.8245 18.1942 57.5994 18.1942 55.4847ZM47.396 57.6781H45.6141V53.2914H47.396C50.8238 53.2914 50.8238 57.6781 47.396 57.6781ZM46.7108 22.5814H77.4207V81.807H46.7108V59.8715C48.2386 59.8715 49.3832 59.9955 50.722 58.8099C51.3781 58.229 51.8332 57.5455 52.0582 56.5814H58.7761V54.3881H52.0582C51.8332 53.4231 51.3781 52.7404 50.722 52.1596C49.3832 50.9739 48.2386 51.098 46.7108 51.098V22.5814ZM44.5174 50.9602C43.5576 50.4521 42.324 50.281 42.324 49.7267V18.1947H81.8083V81.8079H79.6149V21.4847C79.6149 20.8218 79.1812 20.388 78.5183 20.388H45.6149C44.2445 20.388 44.5174 21.7961 44.5183 23.1298L44.5174 50.9602ZM40.1298 49.0406C39.0955 48.7994 37.684 47.807 36.702 47.807H23.2662C19.5305 47.807 16 51.3375 16 55.0733C16 58.8595 17.5296 60.9562 20.6614 62.6132C19.9454 65.6869 18.7768 69.6511 17.9188 72.8941C17.7605 73.492 17.6425 74.0062 17.4594 74.6289C16.8991 76.5426 17.0967 77.6744 17.0967 79.8874C17.0967 81.056 17.6929 82.0491 18.2909 82.6685C18.8495 83.2476 20.0095 84.0004 21.072 84.0004H28.4751C30.3785 84.0004 32.4512 81.9277 32.4512 80.0243V76.3227C32.4512 74.865 29.9832 75.2235 29.9832 71.2499C29.9832 70.7195 30.3682 68.9855 30.5316 68.645C32.9953 68.645 34.6361 68.2438 35.8363 65.8605C37.0433 63.4627 35.5925 63.461 37.1819 63.0931C38.2983 62.8348 39.0998 62.1667 40.1289 61.9272L40.1272 82.0825C40.1178 83.1903 40.1366 83.9996 41.2256 83.9996H82.9033C83.5663 83.9996 84 83.5659 84 82.9029V17.0963C84 16.4333 83.5663 15.9996 82.9033 15.9996H41.2256C39.7782 15.9996 40.1289 17.7045 40.1289 19.1528L40.1298 49.0406Z" fill="#5959A9"/>
<path fill-rule="evenodd" clip-rule="evenodd" d="M63.1611 39.0318H70.8388V46.7095H63.1611V39.0318ZM53.2901 39.0318H60.9678V46.7095H53.2901V39.0318ZM63.1611 29.2976C66.6095 29.3746 70.6241 33.379 70.7011 36.8376H63.1611V29.2976ZM60.9678 29.2976V36.8376H53.4278C53.5048 33.3892 57.5092 29.3746 60.9678 29.2976ZM51.0967 37.3859V47.8053C51.0967 48.4683 51.5304 48.902 52.1934 48.902H71.9355C72.5985 48.902 73.0322 48.4683 73.0322 47.8053V37.3859C73.0322 32.0308 67.9705 26.9665 62.6128 26.9665C58.9899 26.9665 56.5468 27.8895 54.2832 30.1539C52.7571 31.68 51.0967 34.4004 51.0967 37.3859Z" fill="#5959A9"/>
<path fill-rule="evenodd" clip-rule="evenodd" d="M63.1611 70.8384H70.8388V76.3219H63.1611V70.8384ZM53.2901 70.8384H60.9678V76.3219H53.2901V70.8384ZM63.1611 63.1607H70.8388V68.6442H63.1611V63.1607ZM53.2901 63.1607H60.9678V68.6442H53.2901V63.1607ZM51.0967 62.064V77.4186C51.0967 78.0815 51.5304 78.5153 52.1934 78.5153H71.9355C72.5985 78.5153 73.0322 78.0815 73.0322 77.4186V62.064C73.0322 61.4011 72.5985 60.9673 71.9355 60.9673H52.1934C51.5304 60.9673 51.0967 61.4011 51.0967 62.064Z" fill="#5959A9"/>
</svg>
