<svg width="100" height="100" viewBox="0 0 100 100" fill="none" xmlns="http://www.w3.org/2000/svg">
<path fill-rule="evenodd" clip-rule="evenodd" d="M35.742 80.7096H64.2581V81.8065H35.742V80.7096ZM43.1451 73.0323H56.855C56.908 73.6703 57.3842 75.0204 57.588 75.7264C57.8693 76.6999 58.1415 77.566 58.363 78.5161H41.6372C41.8524 77.592 42.1107 76.7864 42.3818 75.8334L43.1451 73.0323ZM18.1936 68.9193V66.4516H81.8065C81.8065 68.5431 82.2417 70.8388 79.8871 70.8388H20.113C18.9135 70.8388 18.1936 70.1188 18.1936 68.9193ZM18.1936 27.7904C18.1936 26.5908 18.9135 25.871 20.113 25.871H79.887C81.0865 25.871 81.8065 26.5908 81.8065 27.7904V64.2581H18.1935L18.1936 27.7904ZM16 27.1049V69.6049C16 71.3095 17.8311 73.0022 19.5581 73.0387C26.0968 73.1773 34.1533 73.0323 40.8146 73.0323C40.5992 73.9564 40.3411 74.762 40.0698 75.7149L39.3065 78.5161C38.1641 78.5161 37.0212 78.5189 35.8788 78.516C33.1216 78.5088 33.5484 78.4507 33.5484 82.9032C33.5484 83.5663 33.9819 84 34.6451 84H65.3549C66.89 84 66.4516 81.9501 66.4516 79.613C66.4516 78.3645 65.3559 78.5128 64.1212 78.516C62.9788 78.5189 61.8359 78.5161 60.6935 78.5161L59.1854 73.0323L80.3049 73.0387C82.1383 73.0282 84 71.3668 84 69.6049V27.1049C84 25.4977 82.1796 23.6774 80.5726 23.6774H19.4274C17.8204 23.6774 16 25.4977 16 27.1049Z" fill="#5959A9"/>
<path fill-rule="evenodd" clip-rule="evenodd" d="M40.314 52.2171C41.7977 52.1935 42.936 51.8661 43.9678 51.371L46.0243 55.4838H38.7581L40.314 52.2171ZM41.6373 49.7258C41.7763 49.1282 42.0463 48.9524 42.1855 48.3549H42.4597C42.5816 48.8778 42.7492 48.9285 42.8711 49.4515C42.2861 49.5002 42.2221 49.6772 41.6373 49.7258ZM33.5485 43.4193C33.5485 37.7749 40.5413 34.5726 44.7585 38.7898C47.933 41.9642 46.5365 46.7742 44.7904 47.9435C43.9832 46.4181 43.4625 44.5161 42.3227 44.5161C41.4161 44.5161 41.2248 45.268 40.7342 46.218L39.6265 48.4004C39.3608 48.9327 39.1522 49.3774 38.8953 49.8629C38.0024 49.4345 35.2201 49.0271 34.0754 45.9084C33.8631 45.3299 33.5485 44.2268 33.5485 43.4193ZM31.355 42.871C31.355 45.3962 31.7793 47.2779 33.3778 49.0738C34.4624 50.2922 35.9781 51.4953 37.7985 51.9193C37.7007 53.0933 34.0359 57.6773 36.8389 57.6773H47.8066C50.1728 57.6773 47.9055 54.1737 47.4866 53.3361C46.9343 52.2314 46.4427 51.1869 45.8871 50.1372C46.5443 49.1558 48.9032 47.5569 48.9032 43.6935C48.9032 39.8401 47.0082 37.0507 43.9241 35.5114C40.0887 33.5972 35.4508 34.898 32.9579 38.3045C32.0744 39.5118 31.355 41.2358 31.355 42.871Z" fill="#5959A9"/>
<path fill-rule="evenodd" clip-rule="evenodd" d="M64.1211 20.387H41.2259V18.1935H64.1211C64.7324 18.1935 65.355 18.7487 65.355 19.2903C65.355 19.832 64.7324 20.387 64.1211 20.387ZM36.2904 19.1533C37.4223 18.8895 37.5583 18.1935 39.0324 18.1935V20.387C37.5583 20.387 37.4223 19.691 36.2904 19.4274V19.1533ZM32.4517 19.2903C32.4517 20.37 34.3276 20.9201 35.6414 21.5845L36.7187 22.1525C37.1676 22.3874 37.3971 22.5807 38.0727 22.5807H64.5324C66.2104 22.5807 67.5485 21.1396 67.5485 19.0162C67.5485 17.5079 66.0406 16 64.5324 16H38.0727C37.3217 16 37.0938 16.2478 36.4428 16.5635L33.5237 18.0317C32.9664 18.3006 32.4517 18.5004 32.4517 19.2903Z" fill="#5959A9"/>
<path fill-rule="evenodd" clip-rule="evenodd" d="M61.9273 53.4273C61.4105 53.3843 61.1361 53.2188 60.6355 53.0741L54.1605 51.1862C53.2326 50.9191 52.393 50.6174 51.508 50.4114C51.5734 49.6236 54.1292 41.687 54.5241 39.9919C55.2174 40.0495 56.3674 40.5036 57.099 40.7072L64.9434 43.008L61.9273 53.4273ZM48.9031 51.2338C48.9031 52.2639 50.6974 52.5445 51.9031 52.8951C53.0623 53.2324 54.3611 53.5941 55.5009 53.9586L62.7499 56.0322C63.7799 56.0322 64.0606 54.2379 64.4112 53.0322L66.5292 45.8276C67.967 40.7448 69.0749 41.8226 60.9515 39.4596L53.7015 37.387C52.6715 37.387 52.391 39.1815 52.0403 40.387L48.9031 51.2338Z" fill="#5959A9"/>
<path fill-rule="evenodd" clip-rule="evenodd" d="M22.5806 32.4516H24.7742V34.6451H22.5806V32.4516ZM20.387 31.3549V35.7419C20.387 36.4051 20.8206 36.8388 21.4838 36.8388H25.871C26.5342 36.8388 26.9677 36.4051 26.9677 35.7419V31.3549C26.9677 30.6917 26.5342 30.2581 25.871 30.2581H21.4838C20.8206 30.2581 20.387 30.6917 20.387 31.3549Z" fill="#5959A9"/>
<path fill-rule="evenodd" clip-rule="evenodd" d="M75.2257 32.4516H77.4192V34.6451H75.2257V32.4516ZM73.0322 31.3549V35.7419C73.0322 36.4051 73.4657 36.8388 74.1289 36.8388H78.5161C79.1793 36.8388 79.6129 36.4051 79.6129 35.7419V31.3549C79.6129 30.6917 79.1793 30.2581 78.5161 30.2581H74.1289C73.4657 30.2581 73.0322 30.6917 73.0322 31.3549Z" fill="#5959A9"/>
<path fill-rule="evenodd" clip-rule="evenodd" d="M22.5806 40.1289H24.7742V42.3226H22.5806V40.1289ZM20.387 39.0323V43.4193C20.387 44.0825 20.8206 44.5161 21.4838 44.5161H25.871C26.5342 44.5161 26.9677 44.0825 26.9677 43.4193V39.0323C26.9677 38.3691 26.5342 37.9354 25.871 37.9354H21.4838C20.8206 37.9354 20.387 38.3691 20.387 39.0323Z" fill="#5959A9"/>
<path fill-rule="evenodd" clip-rule="evenodd" d="M75.2257 40.1289H77.4192V42.3226H75.2257V40.1289ZM73.0322 39.0323V43.4193C73.0322 44.0825 73.4657 44.5161 74.1289 44.5161H78.5161C79.1793 44.5161 79.6129 44.0825 79.6129 43.4193V39.0323C79.6129 38.3691 79.1793 37.9354 78.5161 37.9354H74.1289C73.4657 37.9354 73.0322 38.3691 73.0322 39.0323Z" fill="#5959A9"/>
<path fill-rule="evenodd" clip-rule="evenodd" d="M22.5806 47.8065H24.7742V50H22.5806V47.8065ZM20.387 46.7096V51.0968C20.387 51.76 20.8206 52.1935 21.4838 52.1935H25.871C26.5342 52.1935 26.9677 51.76 26.9677 51.0968V46.7096C26.9677 46.0465 26.5342 45.613 25.871 45.613H21.4838C20.8206 45.613 20.387 46.0465 20.387 46.7096Z" fill="#5959A9"/>
<path fill-rule="evenodd" clip-rule="evenodd" d="M75.2257 47.8065H77.4192V50H75.2257V47.8065ZM73.0322 46.7096V51.0968C73.0322 51.76 73.4657 52.1935 74.1289 52.1935H78.5161C79.1793 52.1935 79.6129 51.76 79.6129 51.0968V46.7096C79.6129 46.0465 79.1793 45.613 78.5161 45.613H74.1289C73.4657 45.613 73.0322 46.0465 73.0322 46.7096Z" fill="#5959A9"/>
<path fill-rule="evenodd" clip-rule="evenodd" d="M75.2257 55.4839H77.4192V57.6774H75.2257V55.4839ZM73.0322 54.387V58.7742C73.0322 59.4374 73.4657 59.871 74.1289 59.871H78.5161C79.1793 59.871 79.6129 59.4374 79.6129 58.7742V54.387C79.6129 53.7238 79.1793 53.2903 78.5161 53.2903H74.1289C73.4657 53.2903 73.0322 53.7238 73.0322 54.387Z" fill="#5959A9"/>
<path fill-rule="evenodd" clip-rule="evenodd" d="M22.5806 55.4839H24.7742V57.6774H22.5806V55.4839ZM20.387 54.387V58.7742C20.387 59.4374 20.8206 59.871 21.4838 59.871H25.871C26.5342 59.871 26.9677 59.4374 26.9677 58.7742V54.387C26.9677 53.7238 26.5342 53.2903 25.871 53.2903H21.4838C20.8206 53.2903 20.387 53.7238 20.387 54.387Z" fill="#5959A9"/>
</svg>
