<!-- Generated by IcoMoon.io -->
<svg version="1.1" xmlns="http://www.w3.org/2000/svg" width="32" height="32" viewBox="0 0 32 32">
<title>calculation</title>
<path d="M16.337 25.746v-10.482c0-0.474 0.355-0.919 0.797-0.919h8.030c0.441 0 0.797 0.446 0.797 0.919v10.482c0 0.254-0.181 0.509-0.341 0.639-0.184 0.15-0.452 0.219-0.762 0.219h-7.417c-0.613 0-1.103-0.351-1.103-0.858zM15.479 14.897c-0.858 0-1.716 0.002-2.575 0-0.475-0.001-0.866-0.076-1.033 0.261-0.168 0.338 0.107 0.659 0.482 0.659h3.065v2.452h-2.942c-0.883 0-0.813 0.919-0.184 0.919h3.126v2.513h-3.249c-0.39 0-0.556 0.858 0.123 0.858h3.126v2.758h-8.152c-0.359 0-0.724-0.069-0.933-0.232-0.189-0.148-0.354-0.488-0.354-0.81v-14.343h2.574c1.151 0 1.961-0.81 1.961-1.961v-2.574h8.459c0.613 0 1.103 0.351 1.103 0.858v7.172h-2.82c-0.969 0-1.592 0.675-1.777 1.47zM6.653 9.012l2.927-2.957c0.015 0.505 0.015 0.996 0.015 1.486 0.001 1.323-0.148 1.472-1.471 1.471-0.49-0-0.98 0-1.471 0zM5.12 9.38v15.079c0 0.848 0.664 1.473 1.337 1.666 0.467 0.134 8.206 0.050 9.083 0.050 0.050 0.598 0.859 1.287 1.532 1.287h8.152c0.877 0 1.655-0.869 1.655-1.961v-10.114c0-0.276-0.052-0.586-0.128-0.791-0.251-0.675-0.954-1.17-1.711-1.17h-4.046v-7.049c0-0.507-0.227-0.961-0.475-1.242-0.231-0.262-0.72-0.597-1.18-0.597h-9.378c-0.203 0-2.292 2.2-2.467 2.375-0.413 0.413-0.782 0.782-1.195 1.195-0.182 0.182-1.18 1.095-1.18 1.272z"></path>
<path d="M18.115 16.245h6.068v2.207h-6.068v-2.207zM17.195 16.122v2.329c0 0.442 0.309 0.858 0.735 0.858h6.436c0.437 0 0.736-0.398 0.736-0.858v-2.329c0-0.246-0.198-0.518-0.353-0.627-0.174-0.123-0.523-0.169-0.811-0.169h-5.578c-0.563 0-1.165 0.191-1.165 0.797z"></path>
<path d="M23.754 21.088h0.613v3.678h-0.613v-3.678zM22.834 21.026v3.862c0 1.087 2.391 1.058 2.391 0.122v-4.168c0-0.798-1.124-0.674-1.532-0.674-0.51 0-0.858 0.348-0.858 0.858z"></path>
<path d="M12.353 9.319h5.455c0.864 0 0.753-0.919 0.123-0.919h-5.639c-0.679 0-0.59 0.919 0.061 0.919z"></path>
<path d="M12.598 12.445h5.087c1.141 0 0.723-0.919 0.368-0.919h-5.762c-0.576 0-0.814 0.919 0.307 0.919z"></path>
<path d="M17.931 21.088h0.613v0.613h-0.613v-0.613zM17.073 20.842c0 1.124-0.232 1.778 1.226 1.778 0.288 0 0.637-0.046 0.811-0.169 0.454-0.321 0.353-0.846 0.353-1.424 0-0.98-0.942-0.858-1.532-0.858-0.419 0-0.858 0.27-0.858 0.674z"></path>
<path d="M17.931 24.152h0.613v0.613h-0.613v-0.613zM17.073 23.968c0 1.488-0.12 1.716 1.471 1.716 1.059 0 0.919-0.942 0.919-1.594 0-0.912-0.894-0.858-1.41-0.858-0.517 0-0.981 0.243-0.981 0.735z"></path>
<path d="M20.812 21.088h0.674v0.613h-0.674v-0.613zM19.954 20.904c0 1.025-0.185 1.716 1.226 1.716 1.376 0 1.165-0.751 1.165-1.716 0-0.841-1.030-0.735-1.532-0.735-0.46 0-0.858 0.299-0.858 0.735z"></path>
<path d="M20.812 24.152h0.674v0.613h-0.674v-0.613zM19.954 23.968c0 1.549-0.050 1.716 1.532 1.716 1.042 0 0.858-1.009 0.858-1.716 0-1.027-2.391-0.989-2.391 0z"></path>
<path d="M9.227 18.574c-0.309-0.207-0.34-0.49-0.797-0.49-0.173 0-0.368 0.256-0.368 0.429 0 0.316 0.295 0.509 0.475 0.689 0.784 0.784 0.833 0.546 1.563-0.184 0.271-0.271 0.598-0.455 0.598-0.873 0-0.199-0.267-0.368-0.49-0.368-0.246 0-0.754 0.645-0.981 0.797z"></path>
<path d="M9.227 15.203c-0.371-0.248-0.26-0.491-0.797-0.491-0.157 0-0.368 0.17-0.368 0.491 0 0.105 0.853 1.103 1.165 1.103 0.336 0 1.471-1.135 1.471-1.471 0-0.286-0.143-0.429-0.429-0.429-0.402 0-0.749 0.6-1.042 0.797z"></path>
<path d="M9.227 22.007c-0.577-0.862-1.165-0.522-1.165-0.123 0 0.27 0.889 1.365 1.34 1.162 0.057-0.026 1.296-1.103 1.296-1.407 0-0.262-0.189-0.491-0.429-0.491-0.299 0-0.788 0.688-1.042 0.858z"></path>
<path d="M9.227 11.832c-0.203-0.136-0.375-0.404-0.561-0.488-0.242-0.109-0.603 0.069-0.603 0.365 0 0.362 0.956 1.226 1.165 1.226 0.37 0 0.98-0.819 1.152-0.994 0.175-0.179 0.319-0.188 0.319-0.477 0-0.481-0.333-0.429-0.552-0.429-0.194 0-0.719 0.663-0.919 0.797z"></path>
</svg>
