<!-- Generated by IcoMoon.io -->
<svg version="1.1" xmlns="http://www.w3.org/2000/svg" width="32" height="32" viewBox="0 0 32 32">
<title>measure</title>
<path d="M19.48 11.198h5.974v9.163h-5.974v-9.163zM14.674 16.498h1.348v3.863h-1.348v-3.863zM13.686 16.229v4.133h-1.572v-9.163h6.423v9.163h-1.572v-4.267c0-0.417-0.254-0.584-0.674-0.584h-1.977c-0.447 0-0.628 0.269-0.628 0.719zM15.303 6.885c0.165 0.111 2.144 2.605 2.406 2.939 0.121 0.154 0.234 0.28 0.334 0.43h-5.39c0.55-0.822 2.124-2.582 2.65-3.369zM16.336 6.571h5.66l2.92 3.684-5.348 0.002c-0.375 0.004-0.339-0.026-0.511-0.252-0.36-0.473-2.581-3.171-2.721-3.434zM11.17 10.703v10.107c0 0.127 0.079 0.278 0.144 0.35 0.094 0.104 0.209 0.144 0.395 0.144h14.15c0.368 0 0.539-0.222 0.539-0.584v-9.927c0-0.325-0.689-1.087-0.937-1.398l-2.597-3.242c-0.186-0.229-0.335-0.525-0.643-0.525h-6.917c-0.296 0-0.44 0.27-0.623 0.5l-2.556 3.194c-0.185 0.226-0.333 0.42-0.518 0.649-0.135 0.167-0.436 0.48-0.436 0.733z"></path>
<path d="M5.6 7.514c0 0.138 0.162 0.449 0.494 0.449 0.362 0 0.645-0.504 0.898-0.674v17.429c-0.234-0.157-0.453-0.501-0.675-0.63-0.321-0.186-0.718 0.079-0.718 0.405 0 0.253 0.651 0.809 0.842 0.999 1.229 1.23 0.831 1.258 2.515-0.427 0.124-0.124 0.752-0.613 0.184-0.971-0.166-0.104-0.33-0.097-0.485-0.007-0.222 0.129-0.441 0.473-0.675 0.63v-17.429c0.473 0.25 0.49 0.674 0.943 0.674 0.257 0 0.449-0.201 0.449-0.494 0-0.254-0.58-0.737-0.842-0.999-0.831-0.831-0.924-1.167-1.617-0.472-0.274 0.275-1.313 1.175-1.313 1.516z"></path>
<path d="M13.506 25.886c0-0.327-0.513-0.659-0.674-0.898h11.904c-0.165 0.247-0.663 0.549-0.698 0.866-0.046 0.417 0.495 0.692 0.868 0.338l1.189-1.192c0.574-0.568 0.313-0.608-0.561-1.483-0.487-0.487-1.008-1.245-1.421-0.633-0.32 0.475 0.392 0.816 0.623 1.161h-11.949c0.159-0.238 0.719-0.591 0.719-0.898 0-0.24-0.231-0.494-0.449-0.494-0.309 0-0.86 0.658-1.157 0.955-1.087 1.087-1.063 0.757 0.449 2.268 0.16 0.16 0.351 0.427 0.599 0.482 0.287 0.064 0.558-0.186 0.558-0.471z"></path>
<path d="M21.771 13.489h1.348v1.348h-1.348v-1.348zM20.828 13.040v2.201c0 0.29 0.168 0.539 0.449 0.539h2.381c0.371 0 0.449-0.386 0.449-0.764 0-0.406 0.057-1.968-0.088-2.247-0.057-0.11-0.24-0.223-0.406-0.223h-2.336c-0.248 0-0.449 0.259-0.449 0.494z"></path>
</svg>
