<!-- Generated by IcoMoon.io -->
<svg version="1.1" xmlns="http://www.w3.org/2000/svg" width="32" height="32" viewBox="0 0 32 32">
<title>project</title>
<path d="M11.437 25.827h9.125v0.351h-9.125v-0.351zM13.806 23.37h4.387c0.017 0.204 0.169 0.636 0.235 0.862 0.090 0.312 0.177 0.589 0.248 0.893h-5.352c0.069-0.296 0.152-0.553 0.238-0.858l0.244-0.896zM5.822 22.054v-0.79h20.356c0 0.669 0.139 1.404-0.614 1.404h-19.128c-0.384 0-0.614-0.23-0.614-0.614zM5.822 8.893c0-0.384 0.23-0.614 0.614-0.614h19.128c0.384 0 0.614 0.23 0.614 0.614v11.67h-20.356l0-11.67zM5.12 8.674v13.6c0 0.545 0.586 1.087 1.139 1.099 2.092 0.044 4.67-0.002 6.802-0.002-0.069 0.296-0.152 0.553-0.238 0.858l-0.244 0.896c-0.366 0-0.731 0.001-1.097-0-0.882-0.002-0.746-0.021-0.746 1.404 0 0.212 0.139 0.351 0.351 0.351h9.827c0.491 0 0.351-0.656 0.351-1.404 0-0.4-0.351-0.352-0.746-0.351-0.366 0.001-0.731 0-1.097 0l-0.483-1.755 6.758 0.002c0.587-0.003 1.182-0.535 1.182-1.099v-13.6c0-0.514-0.583-1.097-1.097-1.097h-19.566c-0.514 0-1.097 0.582-1.097 1.097z"></path>
<path d="M12.9 16.709c0.475-0.008 0.839-0.112 1.169-0.271l0.658 1.316h-2.325l0.498-1.045zM13.324 15.912c0.044-0.191 0.131-0.248 0.175-0.439h0.088c0.039 0.167 0.093 0.184 0.132 0.351-0.187 0.016-0.208 0.072-0.395 0.088zM10.736 13.894c0-1.806 2.238-2.831 3.587-1.481 1.016 1.016 0.569 2.555 0.010 2.929-0.258-0.488-0.425-1.097-0.79-1.097-0.29 0-0.351 0.241-0.508 0.545l-0.354 0.698c-0.085 0.17-0.152 0.313-0.234 0.468-0.286-0.137-1.176-0.267-1.542-1.265-0.068-0.185-0.169-0.538-0.169-0.796zM10.034 13.719c0 0.808 0.136 1.41 0.647 1.985 0.347 0.39 0.832 0.775 1.415 0.911-0.031 0.376-1.204 1.843-0.307 1.843h3.51c0.757 0 0.032-1.121-0.102-1.389-0.177-0.354-0.334-0.688-0.512-1.024 0.21-0.314 0.965-0.826 0.965-2.062 0-1.233-0.606-2.126-1.593-2.618-1.227-0.613-2.711-0.196-3.509 0.894-0.283 0.386-0.513 0.938-0.513 1.461z"></path>
<path d="M20.519 6.524h-7.326v-0.702h7.326c0.196 0 0.395 0.178 0.395 0.351s-0.199 0.351-0.395 0.351zM11.613 6.129c0.362-0.084 0.406-0.307 0.877-0.307v0.702c-0.472 0-0.515-0.223-0.877-0.307v-0.088zM10.385 6.173c0 0.346 0.6 0.522 1.021 0.734l0.345 0.182c0.144 0.075 0.217 0.137 0.433 0.137h8.467c0.537 0 0.965-0.461 0.965-1.141 0-0.483-0.483-0.965-0.965-0.965h-8.467c-0.24 0-0.313 0.079-0.522 0.18l-0.934 0.47c-0.178 0.086-0.343 0.15-0.343 0.403z"></path>
<path d="M19.817 17.097c-0.165-0.014-0.253-0.067-0.413-0.113l-2.072-0.604c-0.297-0.085-0.566-0.182-0.849-0.248 0.021-0.252 0.839-2.792 0.965-3.334 0.222 0.018 0.59 0.164 0.824 0.229l2.51 0.736-0.965 3.334zM15.649 16.395c0 0.33 0.574 0.419 0.96 0.532 0.371 0.108 0.787 0.224 1.151 0.34l2.32 0.664c0.33 0 0.419-0.574 0.532-0.96l0.678-2.305c0.46-1.627 0.815-1.282-1.785-2.038l-2.32-0.663c-0.33 0-0.419 0.574-0.532 0.96l-1.004 3.471z"></path>
<path d="M7.226 10.384h0.702v0.702h-0.702v-0.702zM6.524 10.034v1.404c0 0.212 0.139 0.351 0.351 0.351h1.404c0.212 0 0.351-0.139 0.351-0.351v-1.404c0-0.212-0.139-0.351-0.351-0.351h-1.404c-0.212 0-0.351 0.139-0.351 0.351z"></path>
<path d="M24.072 10.384h0.702v0.702h-0.702v-0.702zM23.37 10.034v1.404c0 0.212 0.139 0.351 0.351 0.351h1.404c0.212 0 0.351-0.139 0.351-0.351v-1.404c0-0.212-0.139-0.351-0.351-0.351h-1.404c-0.212 0-0.351 0.139-0.351 0.351z"></path>
<path d="M7.226 12.841h0.702v0.702h-0.702v-0.702zM6.524 12.49v1.404c0 0.212 0.139 0.351 0.351 0.351h1.404c0.212 0 0.351-0.139 0.351-0.351v-1.404c0-0.212-0.139-0.351-0.351-0.351h-1.404c-0.212 0-0.351 0.139-0.351 0.351z"></path>
<path d="M24.072 12.841h0.702v0.702h-0.702v-0.702zM23.37 12.49v1.404c0 0.212 0.139 0.351 0.351 0.351h1.404c0.212 0 0.351-0.139 0.351-0.351v-1.404c0-0.212-0.139-0.351-0.351-0.351h-1.404c-0.212 0-0.351 0.139-0.351 0.351z"></path>
<path d="M7.226 15.298h0.702v0.702h-0.702v-0.702zM6.524 14.947v1.404c0 0.212 0.139 0.351 0.351 0.351h1.404c0.212 0 0.351-0.139 0.351-0.351v-1.404c0-0.212-0.139-0.351-0.351-0.351h-1.404c-0.212 0-0.351 0.139-0.351 0.351z"></path>
<path d="M24.072 15.298h0.702v0.702h-0.702v-0.702zM23.37 14.947v1.404c0 0.212 0.139 0.351 0.351 0.351h1.404c0.212 0 0.351-0.139 0.351-0.351v-1.404c0-0.212-0.139-0.351-0.351-0.351h-1.404c-0.212 0-0.351 0.139-0.351 0.351z"></path>
<path d="M24.072 17.755h0.702v0.702h-0.702v-0.702zM23.37 17.404v1.404c0 0.212 0.139 0.351 0.351 0.351h1.404c0.212 0 0.351-0.139 0.351-0.351v-1.404c0-0.212-0.139-0.351-0.351-0.351h-1.404c-0.212 0-0.351 0.139-0.351 0.351z"></path>
<path d="M7.226 17.755h0.702v0.702h-0.702v-0.702zM6.524 17.404v1.404c0 0.212 0.139 0.351 0.351 0.351h1.404c0.212 0 0.351-0.139 0.351-0.351v-1.404c0-0.212-0.139-0.351-0.351-0.351h-1.404c-0.212 0-0.351 0.139-0.351 0.351z"></path>
</svg>
