<!-- Generated by IcoMoon.io -->
<svg version="1.1" xmlns="http://www.w3.org/2000/svg" width="32" height="32" viewBox="0 0 32 32">
<title>working-process</title>
<path d="M7.23 22.184l0.298 0.491c0.114 0.183 0.222 0.317 0.353 0.48 0.432 0.537 1.243 1.114 1.908 1.337 0.921 0.31 1.078 0.279 2.002 0.279v1.404h-4.562l0-3.991zM16.265 23.369h-1.667v-1.535c0-0.108 0.418-0.526 0.526-0.526 0.331 0 0.505 0.189 0.614 0.658 0.2 0 1.278-0.027 1.42 0.028 0.574 0.222 0.103 1.376-0.893 1.376zM24.775 22.316c0-0.443 0.702-0.443 0.702 0s-0.702 0.443-0.702 0zM16.046 20.869c0.176-0.047 1.27-0.769 2.247 0.209 0.728 0.728 0.622 1.959-0.047 2.518-0.349 0.293-0.731 0.475-1.368 0.475v-0.088c0.492-0.041 1.228-0.806 1.228-1.535 0-1.316-0.985-1.184-1.886-1.184-0.031-0.059-0.059-0.114-0.089-0.174-0.041-0.083-0.052-0.143-0.087-0.22zM14.116 19.816l0.428-0.449c0.444 0.308 0.427 0.449 1.063 0.449 0.529 0 1.096-0.517 1.096-1.053v-0.307h0.702v0.307c0 0.557 0.537 1.053 1.228 1.053 0.52 0 0.625-0.24 0.921-0.439l0.449 0.428c-0.263 0.386-0.449 0.38-0.449 1.019 0 0.576 0.504 1.14 1.053 1.14h0.307v0.702h-0.307c-0.518 0-1.053 0.488-1.053 1.228 0 0.52 0.24 0.625 0.439 0.921l-0.428 0.449c-0.386-0.263-0.38-0.449-1.019-0.449-0.575 0-1.14 0.491-1.14 1.053v0.307h-0.702v-0.307c0-0.518-0.488-1.053-1.228-1.053-0.52 0-0.625 0.24-0.921 0.439l-0.493-0.472c0.285-0.156 0.537-0.289 0.537-0.712 1.29 0 0.541 0.091 1.377 0.465 1.801 0.805 3.535-0.551 3.535-2.088v-0.263c0-1.195-1.129-2.325-2.325-2.325-0.713 0-1.201 0.132-1.715 0.565-0.405 0.341-0.056-0.1-0.916 0.356 0-0.59-0.213-0.628-0.439-0.965zM10.081 18.412c0.148 0.071 0.438 0.044 0.658 0.044 0.031 0.116 0.965 1.443 0.965 2.763-0.561-0.131-0.994-0.406-1.258-0.935-0.132-0.264-0.364-1.559-0.364-1.872zM8.282 17.404c0.251 0 0.571 0.163 0.714 0.295 0.453 0.418 0.421 1.681 0.63 2.441 0.139 0.504 0.387 0.915 0.774 1.243 0.334 0.282 0.883 0.583 1.479 0.583h2.018v2.105c-0.995 0-2.786 0.091-3.636-0.18-0.337-0.108-0.75-0.29-1.014-0.477-1.667-1.183-1.616-2.359-1.905-4.148-0.095-0.591-0.256-1.258 0.343-1.669 0.107-0.073 0.441-0.193 0.597-0.193zM24.424 14.772l-0.473-0.448-0.502 0.526 1.008 0.985 1.476-1.746c0.082-0.107 0.144-0.17 0.245-0.238v2.5h-3.509v-3.509h3.377l-1.623 1.93zM7.581 12.491c0-0.389 0.511-0.351 0.702-0.351 0-1.637 0.075-1.404 2.983-1.404 0.040 0.149 0.199 0.365 0.278 0.512 0.24 0.447 0.556 1.41 0.556 1.945 0 0.159-0.366 0.217-0.488 0.258-0.628 0.209-0.521 0.017-0.521 0.795-0.727 0-1.045 0.075-1.447-0.526l-0.614 0.308c0.074 0.318 0.423 0.607 0.701 0.745 0.465 0.232 0.653 0.175 1.317 0.175-0.073 0.88-1.252 0.702-2.062 0.702v0.702h0.702c0.119 0.51 0.164 0.883 0.482 1.36-0.468-0.039-0.223-0.104-0.756-0.604-0.289-0.271-0.661-0.405-1.13-0.405v-3.114c0-0.436-0.702-0.663-0.702-1.097zM16.353 13.368l-0.473-0.448-0.502 0.526 1.008 0.985 1.37-1.546v2.062h-2.807v-2.807h2.456c-0.16 0.24-0.892 0.989-1.053 1.228zM7.581 11.482c-0.531 0.281-0.702 0.481-0.702 1.14 0 0.315 0.214 0.59 0.383 0.757 0.369 0.365 0.319 0.186 0.319 0.866-0.445-0.298-0.876-0.6-1.198-1.039-0.438-0.598-0.756-1.779-0.425-2.47h1.798c-0.122 0.23-0.175 0.389-0.175 0.746zM17.976 11.438h-1.623c0-2.853-0.102-1.894 0.406-2.401 0.124-0.124 0.197-0.406 0.34-0.406h2.763v2.105h4.211v1.404h-2.105v4.913h2.807v4.167c0 0.143-0.282 0.216-0.406 0.34s-0.197 0.406-0.34 0.406h-2.412v-0.702c-0.418 0-1.005 0.075-1.217-0.143-0.479-0.491 0.424-0.973 0.647-1.305l-1.525-1.502c-0.134 0.194-0.703 0.8-0.932 0.8-0.653 0-0.482-0.927-0.482-1.36h-0.702v-2.105h1.053v-3.509c0-0.122 0.381-0.477 0.47-0.583l0.495-0.601c-0.111-0.074-0.152-0.133-0.251-0.231-0.106-0.104-0.16-0.13-0.275-0.207-0.278 0.186-0.737 0.921-0.921 0.921zM20.564 5.824h4.913v4.211h-4.913v-4.211zM5.826 9.333h7.018v0.702h-7.018v-0.702zM11.441 7.929h0.351c0.155 0 0.144 0.158 0.177 0.305 0.028 0.128 0.056 0.269 0.086 0.396h-0.614l0-0.702zM8.633 7.228h0.702v1.404h-0.702v-1.404zM6.002 7.929h0.526v0.702h-0.658c0.021-0.247 0.126-0.46 0.132-0.702zM15.651 8.28c0-0.443 0.702-0.443 0.702 0s-0.702 0.443-0.702 0zM7.932 7.14v1.491h-0.702c0-0.681 0.152-1.404-0.833-1.404 0.084-0.314 0.725-0.801 1-0.974 0.636-0.4 1.581-0.542 2.384-0.304 0.757 0.224 1.314 0.63 1.748 1.278-0.943 0-0.789 0.792-0.789 1.404h-0.702v-1.491c0-0.274-0.34-0.614-0.614-0.614h-0.877c-0.274 0-0.614 0.34-0.614 0.614zM5.124 9.026v1.097c0 0.267 0.165 0.191 0.101 0.49-0.259 1.198-0.049 2.325 0.743 3.228 0.31 0.353 0.348 0.409 0.78 0.711 0.108 0.076 0.833 0.522 0.833 0.658v1.535c0 0.129-0.052 0.109-0.142 0.165-0.486 0.301-0.91 0.765-0.91 1.414v8.553h5.965v-2.105c0.765 0 0.475-0.074 1.283 0.735 0.204 0.204 0.641 0.595 0.779 0.8 0.332-0.222 0.814-1.126 1.305-0.647 0.218 0.212 0.143 0.799 0.143 1.217h2.105c0-0.418-0.075-1.005 0.143-1.217 0.322-0.314 0.602-0.034 0.833 0.197 0.152 0.153 0.312 0.277 0.428 0.45l1.546-1.524c-0.194-0.134-0.8-0.704-0.8-0.932 0-0.087 0.087-0.283 0.143-0.34 0.212-0.218 0.799-0.143 1.217-0.143v-0.702h2.412c0.18 0 0.145 0.227 0.387 0.446 0.537 0.485 1.762 0.34 1.762-0.885 0-0.224-0.127-0.463-0.236-0.597-0.211-0.259-0.466-0.228-0.466-0.411v-4.167h1.404v-4.913h-2.105v-1.404h1.404v-5.614h-6.316v2.807h-2.763c-0.257 0-0.166-0.702-1.184-0.702-0.744 0-1.319 0.999-0.722 1.731 0.078 0.096 0.137 0.142 0.233 0.205 0.11 0.071 0.226 0.078 0.226 0.213v2.062h-1.404v4.211h2.456v2.105h-0.702c0 0.417 0.164 1.36-0.482 1.36-0.303 0-0.722-0.627-0.965-0.79l-1.48 1.502c0.209 0.319 1.115 0.802 0.636 1.294-0.214 0.22-0.831 0.143-1.261 0.143 0-0.432-0.171-1.072-0.272-1.438-0.248-0.895-0.679-1.546-1.226-2.24-0.212-0.269-0.484-0.807-0.52-1.235 1.368-0.319 1.36-1.124 1.36-2.193 0.161-0.038 1.053-0.276 1.053-0.439 0-0.857-0.13-1.692-0.482-2.413l-0.263-0.57c0.3 0 0.716 0.061 0.981-0.028 0.596-0.201 0.467-0.883 0.467-1.463 0-0.269-0.277-0.614-0.746-0.614-0.243-1.041-0.366-1.616-1.151-2.401-0.6-0.6-1.554-1.107-2.489-1.107-1.332 0-1.838 0.236-2.757 0.971-0.821 0.657-1.278 1.846-1.278 2.932z"></path>
<path d="M22.318 8.456l-0.473-0.448-0.502 0.526 1.008 0.985 1.009-1.205c0.070-0.079 0.096-0.093 0.167-0.184 0.28-0.36 0.964-1.094 1.159-1.385-0.050-0.068-0.402-0.394-0.57-0.439-0.131 0.195-0.281 0.345-0.432 0.533-0.346 0.429-1.081 1.191-1.366 1.616z"></path>
</svg>
