<!-- Generated by IcoMoon.io -->
<svg version="1.1" xmlns="http://www.w3.org/2000/svg" width="32" height="32" viewBox="0 0 32 32">
<title>communication</title>
<path d="M10.572 19.892c-0.012 0.52-0.636 0.984-1.051 0.47-0.125-0.155-0.155-0.295-0.239-0.47h1.29zM7.813 17.061c0-1.426 1.498-2.577 3.008-1.928 1.020 0.438 1.553 1.688 1.068 2.796-0.729 1.666-3.173 1.626-3.88-0-0.087-0.2-0.196-0.61-0.196-0.867zM12.441 22.281v3.981h-4.983v-4.246h-0.712v4.246h-1.068v-3.008c0-1.258 0.591-2.398 1.69-2.964 0.307-0.158 0.74-0.353 1.202-0.353 0.014 0.614 0.652 1.371 1.29 1.371 0.937 0 1.448-0.776 1.513-1.548 2.028-0.47 2.578-1.213 3.815-2.444 0.314-0.312 2.092-2.171 2.399-2.305 0.301-0.132 0.638-0.025 0.8 0.253 0.316 0.54-0.196 0.88-0.551 1.234-0.602 0.598-5.053 4.96-5.188 5.193-0.088 0.152-0.207 0.379-0.207 0.591zM7.101 16.885c0 1.683 0.687 1.889 1.023 2.388-0.758 0-1.665 0.698-2.17 1.204-0.451 0.452-0.989 1.487-0.989 2.378v4.114h8.187v-4.467c0-0.456 0.388-0.717 0.634-0.962 0.582-0.579 5.072-4.992 5.194-5.187 0.609-0.972-0.089-2.122-1.067-2.122-0.862 0-1.056 0.409-1.657 1.006-0.606 0.603-2.576 2.644-3.148 3.019-0.191 0.125-0.565 0.387-0.801 0.442 0.141-0.527 0.489-0.432 0.489-1.813 0-1.336-1.326-2.654-2.67-2.654h-0.356c-1.344 0-2.67 1.318-2.67 2.654z"></path>
<path d="M8.525 11.975v-3.273c0-0.556 0.286-0.84 0.845-0.84h6.273v3.317c0 0.259 0.11 0.549 0.213 0.718 0.048 0.079 0.125 0.194 0.18 0.263 0.087 0.108 0.152 0.142 0.23 0.258-0.173 0.256-0.313 0.381-0.711 0.399-0.189 0.008-0.393-0.008-0.583-0.004-0.239 0.005-0.265 0.060-0.415 0.162-0.21 0.144-1.258 0.863-1.406 0.903v-1.062h-3.782c-0.545 0-0.845-0.298-0.845-0.84zM16.356 10.958v-4.069c0-0.686 0.466-1.15 1.157-1.15h7.653c0.681 0 1.157 0.473 1.157 1.15v4.069c0 0.677-0.476 1.15-1.157 1.15h-4.894v1.062c-0.169-0.045-0.74-0.461-0.925-0.584-0.587-0.389-0.571-0.484-1.076-0.478-0.728 0.007-1.914 0.105-1.914-1.149zM15.644 6.667v0.487h-6.496c-0.687 0-1.335 0.644-1.335 1.327v3.715c0 0.71 0.701 1.327 1.29 1.327h3.337v1.725c0.342-0.18 0.711-0.457 1.050-0.681 0.362-0.24 0.692-0.458 1.041-0.69 0.083-0.055 0.434-0.306 0.511-0.332 0.241-0.082 0.593 0.011 0.858-0.032 0.381-0.062 0.899-0.409 0.989-0.742 0.227 0 0.377 0.046 0.667 0.044 0.865-0.004 0.663-0.092 1.202 0.265l1.335 0.885c0.278 0.184 0.596 0.421 0.89 0.575v-1.725h4.405c0.821 0 1.646-0.821 1.646-1.636v-4.512c0-0.816-0.825-1.637-1.646-1.637h-8.098c-0.821 0-1.646 0.821-1.646 1.637z"></path>
<path d="M21.873 24.846h-4.182c-0.817 0-0.817-1.062 0-1.062h3.96c0.005-0.207 0.566-2.228 0.673-2.515 0.206-0.554 0.624-1.027 1.177-1.218 0.604-0.209 0.99-0.212 1.57 0.023 0.409 0.165 0.654 0.409 0.895 0.747 0.257 0.359 0.355 0.841 0.355 1.327v4.114h-4.627v-0.708c0.408 0 0.723 0.031 1.076-0.214 0.596-0.413 0.665-0.975 0.91-1.705l0.862-2.593-0.712-0.221-1.117 3.357c-0.133 0.401-0.293 0.668-0.84 0.668zM20.983 17.062c0-0.524 0.248-1.098 0.61-1.472 1.305-1.351 3.661-0.382 3.661 1.472 0 0.793-0.525 1.611-1.264 1.928-1.123 0.483-2.377-0.060-2.812-1.062-0.087-0.2-0.196-0.61-0.196-0.867zM20.271 16.885c0 0.819 0.148 1.459 0.678 2.024 0.347 0.371 0.952 0.85 1.502 0.895-0.199 0.296-0.616 0.487-0.885 1.42l-0.494 1.853c-0.964 0-1.928 0-2.892 0-0.581 0-0.901-0.059-1.272 0.195-1.071 0.731-0.437 2.282 0.561 2.282h3.515v1.415h6.051v-5.175c0-0.633-0.349-1.304-0.657-1.647-0.176-0.196-0.387-0.392-0.619-0.535-0.194-0.119-0.555-0.318-0.816-0.339 0.103-0.152 0.239-0.244 0.367-0.387 0.103-0.115 0.223-0.308 0.31-0.444 0.305-0.48 0.346-0.986 0.346-1.558 0-1.336-1.326-2.654-2.669-2.654h-0.356c-1.344 0-2.67 1.318-2.67 2.654z"></path>
<path d="M17.068 9.985h8.543v-0.708h-8.543v0.708z"></path>
<path d="M17.068 11.4h8.543v-0.708h-8.543v0.708z"></path>
<path d="M17.068 8.569h7.119v-0.708h-7.119v0.708z"></path>
<path d="M19.915 7.154h5.695v-0.708h-5.695v0.708z"></path>
<path d="M9.237 10.692h5.695v-0.708h-5.695v0.708z"></path>
<path d="M9.237 12.108h5.695v-0.708h-5.695v0.708z"></path>
<path d="M10.661 9.277h4.271v-0.708h-4.271v0.708z"></path>
<path d="M17.068 7.154h0.712v-0.708h-0.712v0.708z"></path>
<path d="M18.492 7.154h0.712v-0.708h-0.712v0.708z"></path>
<path d="M24.899 8.569h0.712v-0.708h-0.712v0.708z"></path>
<path d="M9.237 9.277h0.712v-0.708h-0.712v0.708z"></path>
</svg>
