<!-- Generated by IcoMoon.io -->
<svg version="1.1" xmlns="http://www.w3.org/2000/svg" width="32" height="32" viewBox="0 0 32 32">
<title>installation</title>
<path d="M13.543 19.598c0-0.152 0.18-0.168 0.305-0.221 0.121-0.051 0.282-0.113 0.396-0.174v6.976h-0.702v-6.581zM6.173 25.345v-0.57h3.51c0 1.635-0.149 1.404-2.676 1.404-0.538 0-0.834-0.296-0.834-0.834zM9.946 21.265c0-0.223 0.052-0.327 0.097-0.517 0.038-0.161 0.083-0.367 0.122-0.536h0.79c-0.076 0.328-0.063 0.514-0.266 0.743-0.045 0.050 0.003 0.003-0.067 0.065-0.19 0.17-0.398 0.245-0.677 0.245zM8.849 22.844c0 0.526 0.169 0.885 0.351 1.228h-2.895l1.009-3.861h2.106c-0.081 0.349-0.57 2.326-0.57 2.632zM12.14 19.291v-3.071c0.357 0.083 1.514 0.682 1.755 0.702v1.667c-0.163 0.013-0.713 0.277-0.879 0.35l-0.876 0.352zM5.822 17.755c0-0.806 0.577-1.518 1.404-1.711v1.711h0.702v-1.755h0.702v1.755h0.702v-1.755h0.702v1.755h0.702v-1.755h0.702v3.51h-3.773c-0.245 0-0.554-0.069-0.741-0.136-0.636-0.23-1.101-0.942-1.101-1.619zM15.167 18.457h-0.57v-1.404h0.57c1.097 0 1.097 1.404 0 1.404zM14.947 7.226h9.827v18.952h-9.827v-7.019c0.489 0 0.855 0.040 1.284-0.34 0.21-0.186 0.356-0.405 0.428-0.713h2.15v-0.702h-2.15c-0.072-0.309-0.218-0.527-0.428-0.713-0.428-0.379-0.795-0.34-1.284-0.34v-9.125zM14.246 16.307c-0.307-0.163-0.702-0.217-0.702-0.395v-10.090h12.635v20.356h-0.702v-19.303c0-0.212-0.139-0.351-0.351-0.351h-10.529c-0.439 0-0.351 0.451-0.351 0.877l-0 8.906zM12.842 15.693c-0.331-0.077-0.783-0.395-1.097-0.395h-4.299c-1.195 0-2.325 1.13-2.325 2.325 0 1.212 0.489 1.883 1.492 2.413-0.229 0.984-0.603 2.252-0.878 3.29-0.051 0.191-0.088 0.356-0.147 0.555-0.179 0.612-0.116 0.975-0.116 1.683 0 0.374 0.191 0.692 0.382 0.89 0.179 0.185 0.55 0.426 0.89 0.426h2.369c0.609 0 1.272-0.663 1.272-1.272v-1.184c0-0.466-0.79-0.352-0.79-1.623 0-0.17 0.123-0.725 0.175-0.834 0.788 0 1.313-0.128 1.697-0.891 0.386-0.767-0.078-0.768 0.431-0.886 0.357-0.083 0.614-0.296 0.943-0.373l-0.001 6.45c-0.003 0.355 0.003 0.613 0.351 0.613h13.337c0.212 0 0.351-0.139 0.351-0.351v-21.058c0-0.212-0.139-0.351-0.351-0.351h-13.337c-0.463 0-0.351 0.546-0.351 1.009l0 9.564z"></path>
<path d="M20.212 12.49h2.457v2.457h-2.457v-2.457zM17.053 12.49h2.457v2.457h-2.457v-2.457zM20.212 9.375c1.104 0.025 2.388 1.306 2.413 2.413h-2.413v-2.413zM19.51 9.375v2.413h-2.413c0.025-1.104 1.306-2.388 2.413-2.413zM16.351 11.963v3.334c0 0.212 0.139 0.351 0.351 0.351h6.317c0.212 0 0.351-0.139 0.351-0.351v-3.334c0-1.714-1.62-3.334-3.334-3.334-1.159 0-1.941 0.295-2.665 1.020-0.488 0.488-1.020 1.359-1.020 2.314z"></path>
<path d="M20.212 22.668h2.457v1.755h-2.457v-1.755zM17.053 22.668h2.457v1.755h-2.457v-1.755zM20.212 20.211h2.457v1.755h-2.457v-1.755zM17.053 20.211h2.457v1.755h-2.457v-1.755zM16.351 19.86v4.913c0 0.212 0.139 0.351 0.351 0.351h6.317c0.212 0 0.351-0.139 0.351-0.351v-4.913c0-0.212-0.139-0.351-0.351-0.351h-6.317c-0.212 0-0.351 0.139-0.351 0.351z"></path>
</svg>
