<svg width="100" height="100" viewBox="0 0 100 100" fill="none" xmlns="http://www.w3.org/2000/svg">
<path fill-rule="evenodd" clip-rule="evenodd" d="M33.037 62.1636C33.0007 63.7887 31.0479 65.24 29.7517 63.6324C29.3603 63.1475 29.2682 62.7101 29.0045 62.1636H33.037ZM24.4166 53.3172C24.4166 48.8614 29.0974 45.2636 33.8159 47.2907C37.0047 48.6604 38.6675 52.5668 37.1529 56.0266C34.875 61.232 27.2374 61.1089 25.0282 56.0262C24.7573 55.4025 24.4166 54.1208 24.4166 53.3172ZM38.8768 69.6274V82.0674H23.3043V68.7977H21.0796V82.0674H17.7425V72.668C17.7425 68.738 19.5898 65.1731 23.024 63.405C23.9831 62.9114 25.3351 62.3013 26.7802 62.3013C26.823 64.2193 28.8164 66.5861 30.8123 66.5861C33.7407 66.5861 35.3376 64.1621 35.5398 61.7484C41.8761 60.2807 43.5946 57.9567 47.4627 54.1115C48.4448 53.1351 54.0008 47.3264 54.9581 46.9076C55.8985 46.4963 56.9504 46.8307 57.4583 47.6994C58.4448 49.386 56.8468 50.45 55.7355 51.5547C53.8544 53.4248 39.9449 67.0532 39.5233 67.7817C39.2481 68.257 38.8768 68.9665 38.8768 69.6274ZM22.1919 52.7642C22.1919 58.0233 24.3386 58.6674 25.3898 60.2281C23.0208 60.2281 20.1856 62.4104 18.6088 63.9918C17.2 65.4052 15.5178 68.6396 15.5178 71.4242V84.279H41.1012V70.3187C41.1012 68.8943 42.3132 68.0771 43.0827 67.3121C44.9019 65.5036 58.9326 51.7117 59.3139 51.1034C61.217 48.066 59.0369 44.4707 55.979 44.4707C53.2842 44.4707 52.6787 45.7475 50.7997 47.6154C48.9049 49.499 42.7485 55.8782 40.963 57.0498C40.3662 57.4418 39.1988 58.26 38.4599 58.4313C38.902 56.7851 39.9892 57.0816 39.9892 52.7642C39.9892 48.5903 35.8456 44.4711 31.6469 44.4711H30.5346C26.3359 44.4711 22.1919 48.5903 22.1919 52.7642Z" fill="#5959A9"/>
<path fill-rule="evenodd" clip-rule="evenodd" d="M26.6408 37.4218V27.1934C26.6408 25.4546 27.5337 24.567 29.2829 24.567H48.8875V34.9337C48.8875 35.7434 49.2307 36.6479 49.552 37.1761C49.7027 37.4239 49.9412 37.7816 50.1157 37.9979C50.387 38.3341 50.5906 38.4425 50.8341 38.804C50.2941 39.6055 49.8556 39.9957 48.6119 40.0508C48.0209 40.0769 47.3823 40.0243 46.7912 40.0379C46.0451 40.055 45.962 40.2239 45.4936 40.5447C44.8378 40.9935 41.5623 43.243 41.1011 43.3653V40.0479H29.2825C27.578 40.0479 26.6408 39.1163 26.6408 37.4218ZM51.1122 34.2428V21.5264C51.1122 19.3813 52.5692 17.9325 54.727 17.9325H78.6422C80.769 17.9325 82.2573 19.412 82.2573 21.5264V34.2428C82.2573 36.3571 80.769 37.8363 78.6422 37.8363H63.3477V41.1537C62.8196 41.0135 61.0356 39.7135 60.4557 39.3291C58.6224 38.1145 58.6717 37.818 57.0931 37.8341C54.8187 37.857 51.1122 38.1617 51.1122 34.2428ZM48.8875 20.8351V22.3554H28.5875C26.4419 22.3554 24.4165 24.3688 24.4165 26.5018V38.1124C24.4165 40.3308 26.6067 42.2592 28.4486 42.2592H38.8767V47.6498C39.9462 47.0872 41.0985 46.2232 42.158 45.5211C43.2891 44.7715 44.3197 44.0888 45.4116 43.365C45.671 43.1929 46.7693 42.4094 47.0096 42.3275C47.7615 42.0714 48.8627 42.3632 49.6905 42.228C50.8798 42.0338 52.5012 40.9499 52.7807 39.9095C53.4912 39.9095 53.9586 40.0533 54.8655 40.0486C57.5694 40.0347 56.9366 39.7604 58.6206 40.8769L62.7919 43.6414C63.6603 44.2172 64.6551 44.9557 65.5728 45.4382V40.0475H79.3376C81.9026 40.0475 84.482 37.4833 84.482 34.9334V20.8347C84.482 18.2848 81.9026 15.7205 79.3376 15.7205H54.0323C51.4673 15.7205 48.8875 18.2851 48.8875 20.8351Z" fill="#5959A9"/>
<path fill-rule="evenodd" clip-rule="evenodd" d="M68.3533 77.6446H55.2835C52.7318 77.6446 52.7318 74.3272 55.2835 74.3272H67.6583C67.6727 73.6791 69.4272 67.3662 69.7625 66.4671C70.4075 64.7369 71.713 63.2588 73.4413 62.6601C75.33 62.0056 76.5362 61.9988 78.3486 62.732C79.6265 63.2487 80.3917 64.0105 81.1468 65.0648C81.9498 66.186 82.2577 67.6941 82.2577 69.213V82.0678H67.7975V79.8562C69.0717 79.8562 70.0582 79.9524 71.1586 79.1889C73.02 77.8971 73.2362 76.1425 74.0018 73.8605L76.6959 65.7575L74.4712 65.0666L70.9795 75.5557C70.5647 76.8088 70.0643 77.6446 68.3533 77.6446ZM65.5724 53.3176C65.5724 51.6789 66.3484 49.8879 67.4795 48.717C71.5576 44.4944 78.9206 47.5218 78.9206 53.3176C78.9206 55.7971 77.2787 58.3534 74.972 59.3441C71.4616 60.8519 67.5453 59.1578 66.1847 56.0267C65.9138 55.4029 65.5724 54.1212 65.5724 53.3176ZM63.3477 52.7647C63.3477 55.3239 63.8114 57.3234 65.4663 59.0902C66.5513 60.2485 68.4411 61.7452 70.1607 61.8872C69.5387 62.8106 68.2371 63.4086 67.3949 66.3255L65.8502 72.1156C62.8376 72.1156 59.825 72.1156 56.8125 72.1156C54.9961 72.1156 53.9974 71.9317 52.8365 72.7243C49.4897 75.0092 51.4702 79.8562 54.5881 79.8562H65.5724V84.2794H84.482V68.1072C84.482 66.1302 83.3916 64.0327 82.4304 62.9591C81.8814 62.3457 81.2195 61.7338 80.4956 61.2885C79.8898 60.9159 78.7616 60.2961 77.9468 60.2285C78.2677 59.7521 78.694 59.465 79.094 59.0194C79.4157 58.661 79.792 58.0573 80.0621 57.6321C81.0158 56.1336 81.1446 54.5507 81.1446 52.7643C81.1446 48.5904 77.001 44.4711 72.8024 44.4711H71.69C67.4913 44.4711 63.3477 48.5907 63.3477 52.7647Z" fill="#5959A9"/>
<path fill-rule="evenodd" clip-rule="evenodd" d="M53.3372 31.2018H80.0329V28.9902H53.3372V31.2018Z" fill="#5959A9"/>
<path fill-rule="evenodd" clip-rule="evenodd" d="M53.3372 35.625H80.0329V33.4134H53.3372V35.625Z" fill="#5959A9"/>
<path fill-rule="evenodd" clip-rule="evenodd" d="M53.3372 26.7786H75.5835V24.5674H53.3372V26.7786Z" fill="#5959A9"/>
<path fill-rule="evenodd" clip-rule="evenodd" d="M62.2356 22.3557H80.0329V20.1441H62.2356V22.3557Z" fill="#5959A9"/>
<path fill-rule="evenodd" clip-rule="evenodd" d="M28.8657 33.4135H46.663V31.2018H28.8657V33.4135Z" fill="#5959A9"/>
<path fill-rule="evenodd" clip-rule="evenodd" d="M28.8657 37.8367H46.663V35.6251H28.8657V37.8367Z" fill="#5959A9"/>
<path fill-rule="evenodd" clip-rule="evenodd" d="M33.3149 28.9902H46.6628V26.7786H33.3149V28.9902Z" fill="#5959A9"/>
<path fill-rule="evenodd" clip-rule="evenodd" d="M53.3372 22.3557H55.5619V20.1441H53.3372V22.3557Z" fill="#5959A9"/>
<path fill-rule="evenodd" clip-rule="evenodd" d="M57.7861 22.3557H60.0112V20.1441H57.7861V22.3557Z" fill="#5959A9"/>
<path fill-rule="evenodd" clip-rule="evenodd" d="M77.8081 26.7786H80.0328V24.5674H77.8081V26.7786Z" fill="#5959A9"/>
<path fill-rule="evenodd" clip-rule="evenodd" d="M28.8657 28.9902H31.0904V26.7786H28.8657V28.9902Z" fill="#5959A9"/>
</svg>
