<svg width="100" height="100" viewBox="0 0 100 100" fill="none" xmlns="http://www.w3.org/2000/svg">
<path fill-rule="evenodd" clip-rule="evenodd" d="M60.8755 34.9925H79.5453V63.6283H60.8755V34.9925ZM45.8554 51.5564H50.0671V63.6283H45.8554V51.5564ZM42.7677 50.7141V63.6283H37.8545V34.9925H57.9273V63.6283H53.014V50.2929C53.014 48.9893 52.2208 48.4674 50.9082 48.4674H44.7314C43.3336 48.4674 42.7677 49.3071 42.7677 50.7141ZM47.8205 21.5163C48.3372 21.8625 54.5192 29.6555 55.3395 30.7007C55.7181 31.1813 56.0695 31.5753 56.3834 32.0443H39.5391C41.2587 29.4759 46.1758 23.9748 47.8205 21.5163ZM51.049 20.5331H68.7356L77.8606 32.0443L61.1494 32.052C59.9763 32.0636 60.0887 31.9719 59.5513 31.2639C58.4273 29.7847 51.4844 21.3548 51.049 20.5331ZM34.9062 33.4473V65.0313C34.9062 65.4267 35.1543 65.9008 35.3571 66.1243C35.6504 66.4499 36.0096 66.5752 36.5909 66.5752H80.8088C81.9599 66.5752 82.4935 65.8827 82.4935 64.7497V33.7277C82.4935 32.7109 80.3398 30.3312 79.5647 29.3583L71.4487 19.2257C70.8673 18.5086 70.4022 17.5849 69.4397 17.5849H47.823C46.8967 17.5849 46.4484 18.4285 45.8761 19.1469L37.8893 29.1271C37.3118 29.8325 36.848 30.441 36.2692 31.1567C35.8468 31.6786 34.9062 32.6566 34.9062 33.4473Z" fill="#5959A9"/>
<path fill-rule="evenodd" clip-rule="evenodd" d="M17.5013 23.4824C17.5013 23.9139 18.0077 24.8855 19.0452 24.8855C20.1769 24.8855 21.0606 23.3106 21.8525 22.7796V77.2438C21.12 76.7529 20.4379 75.6793 19.7428 75.2749C18.7403 74.6923 17.5 75.523 17.5 76.541C17.5 77.3317 19.5348 79.068 20.1317 79.6636C23.9739 83.5059 22.7272 83.595 27.9918 78.3303C28.3794 77.9428 30.3406 76.4144 28.5654 75.2969C28.0474 74.9713 27.5332 74.9933 27.0487 75.2749C26.3537 75.678 25.6715 76.7529 24.939 77.2438V22.7796C26.4157 23.5599 26.4699 24.8855 27.8872 24.8855C28.6908 24.8855 29.2902 24.2576 29.2902 23.3416C29.2902 22.5483 27.4776 21.0381 26.6585 20.219C24.063 17.6235 23.7698 16.5718 21.6058 18.7449C20.7492 19.604 17.5013 22.4179 17.5013 23.4824Z" fill="#5959A9"/>
<path fill-rule="evenodd" clip-rule="evenodd" d="M42.2058 80.8951C42.2058 79.8745 40.6012 78.8357 40.1 78.0877H77.2987C76.782 78.859 75.2277 79.8034 75.1179 80.793C74.9732 82.0966 76.6657 82.957 77.831 81.8485L81.5453 78.1239C83.3385 76.3475 82.5233 76.2247 79.7909 73.491C78.2703 71.9704 76.6424 69.601 75.3518 71.513C74.3505 72.9962 76.5765 74.062 77.2987 75.1408H39.9591C40.4565 74.3979 42.2058 73.2946 42.2058 72.3334C42.2058 71.5828 41.4849 70.7896 40.8015 70.7896C39.8364 70.7896 38.1143 72.845 37.1866 73.7726C33.7888 77.1704 33.8651 76.1369 38.5897 80.8615C39.0884 81.3602 39.6853 82.1948 40.463 82.3666C41.3609 82.5656 42.2058 81.7865 42.2058 80.8951Z" fill="#5959A9"/>
<path fill-rule="evenodd" clip-rule="evenodd" d="M68.0341 42.1524H72.2459V46.3641H68.0341V42.1524ZM65.0859 40.7494V47.6276C65.0859 48.5333 65.6118 49.3123 66.489 49.3123H73.9293C75.0894 49.3123 75.3323 48.1057 75.3323 46.9261C75.3323 45.6562 75.5093 40.7752 75.0558 39.9032C74.8762 39.5582 74.3065 39.2055 73.7884 39.2055H66.489C65.7125 39.2055 65.0859 40.0156 65.0859 40.7494Z" fill="#5959A9"/>
</svg>
