<svg width="100" height="100" viewBox="0 0 100 100" fill="none" xmlns="http://www.w3.org/2000/svg">
<path fill-rule="evenodd" clip-rule="evenodd" d="M22.5928 69.3266L23.5254 70.8613C23.8822 71.432 24.218 71.8533 24.6282 72.3627C25.9793 74.0404 28.5125 75.8426 30.5922 76.5419C33.4709 77.5095 33.9603 77.4137 36.8481 77.4137V81.7998H22.5927L22.5928 69.3266ZM50.8292 73.0275H45.6205V68.23C45.6205 67.891 46.9265 66.5851 47.2655 66.5851C48.2989 66.5851 48.8434 67.1772 49.1845 68.6411C49.809 68.6411 53.1771 68.5572 53.6204 68.7286C55.413 69.4227 53.9421 73.0275 50.8292 73.0275ZM77.4208 69.7379C77.4208 68.3531 79.614 68.3531 79.614 69.7379C79.614 71.1226 77.4208 71.1226 77.4208 69.7379ZM50.1438 65.2146C50.6936 65.0678 54.1117 62.8115 57.167 65.8672C59.4427 68.1426 59.1096 71.9889 57.0217 73.7373C55.93 74.6516 54.7359 75.2205 52.7482 75.2205V74.9465C54.2856 74.8185 56.5863 72.4283 56.5863 70.149C56.5863 66.0369 53.5071 66.4481 50.6922 66.4481C50.5951 66.2647 50.507 66.0913 50.4144 65.9034C50.2865 65.6442 50.252 65.4566 50.1438 65.2146ZM44.1127 61.9249L45.4508 60.5215C46.837 61.4835 46.7857 61.9249 48.7732 61.9249C50.4254 61.9249 52.1998 60.3095 52.1998 58.6353V57.6758H54.393V58.6353C54.393 60.3771 56.0707 61.9249 58.231 61.9249C59.855 61.9249 60.1827 61.1749 61.1094 60.5544L62.5128 61.8923C61.6906 63.0998 61.1094 63.0789 61.1094 65.0777C61.1094 66.8764 62.6855 68.6414 64.3991 68.6414H65.3586V70.8345H64.3991C62.7809 70.8345 61.1094 72.3604 61.1094 74.6725C61.1094 76.2965 61.8596 76.6242 62.4801 77.5511L61.142 78.9544C59.9347 78.1322 59.9556 77.5511 57.9569 77.5511C56.1606 77.5511 54.393 79.084 54.393 80.8406V81.8001H52.1998V80.8406C52.1998 79.2224 50.674 77.5511 48.3619 77.5511C46.7378 77.5511 46.4101 78.3012 45.4834 78.9216L43.9428 77.4467C44.8325 76.9605 45.6204 76.5439 45.6204 75.2207C49.6506 75.2207 47.3126 75.5046 49.9251 76.6729C55.5533 79.19 60.9723 74.9517 60.9723 70.1492V69.3267C60.9723 65.5914 57.4428 62.0621 53.7077 62.0621C51.4795 62.0621 49.9533 62.475 48.3472 63.8292C47.0817 64.8959 48.1732 63.5171 45.4834 64.9405C45.4834 63.0972 44.8184 62.9788 44.1127 61.9249ZM31.5023 57.5388C31.9646 57.7606 32.8699 57.6758 33.5584 57.6758C33.6551 58.0384 36.5739 62.1857 36.5739 66.3114C34.8213 65.9029 33.4665 65.0424 32.6414 63.3903C32.2292 62.5644 31.5023 58.5196 31.5023 57.5388ZM25.8825 54.3861C26.6667 54.3861 27.6674 54.8962 28.1134 55.3081C29.5288 56.6153 29.4275 60.5602 30.0816 62.9349C30.5149 64.5084 31.2901 65.7952 32.5018 66.8197C33.5446 67.7018 35.2616 68.6414 37.1224 68.6414H43.4277V75.2207C40.3178 75.2207 34.7223 75.5065 32.0666 74.6568C31.0143 74.3201 29.7229 73.752 28.8969 73.166C23.6876 69.4698 23.8457 65.7939 22.9442 60.2031C22.646 58.3551 22.1435 56.2706 24.0174 54.9881C24.3521 54.7592 25.3957 54.3861 25.8825 54.3861ZM76.3243 46.162L74.846 44.7614L73.2785 46.4062L76.4292 49.4839L81.0421 44.0266C81.2988 43.6915 81.4908 43.4953 81.807 43.2836V51.0965H70.8414V40.1308H81.3957L76.3243 46.162ZM23.6895 39.0343C23.6895 37.8177 25.2856 37.9377 25.8825 37.9377C25.8825 32.8214 26.1171 33.5515 35.2032 33.5515C35.3273 34.0164 35.8242 34.691 36.0714 35.1507C36.8219 36.5461 37.8076 39.5575 37.8076 41.2274C37.8076 41.7243 36.6648 41.9053 36.2823 42.0322C34.3189 42.6848 34.6549 42.0868 34.6549 44.517C32.3828 44.517 31.3904 44.7522 30.1318 42.8722L28.2139 43.8344C28.4445 44.8284 29.535 45.7303 30.4037 46.164C31.8566 46.8896 32.4453 46.7102 34.5179 46.7102C34.2891 49.4601 30.6065 48.9033 28.0756 48.9033V51.0963H30.2688C30.6399 52.6895 30.7799 53.8571 31.7764 55.3455C30.3143 55.2239 31.0783 55.02 29.4143 53.4585C28.5115 52.6113 27.3483 52.193 25.8823 52.193V42.4609C25.8823 41.0988 23.6895 40.3896 23.6895 39.0343ZM51.1035 41.7758L49.6253 40.3752L48.0576 42.02L51.2085 45.0978L55.4896 40.2681V46.7103H46.7173V37.9377H54.3931C53.8918 38.6866 51.6048 41.0269 51.1035 41.7758ZM23.6895 35.8817C22.0302 36.7596 21.4963 37.386 21.4963 39.4457C21.4963 40.4315 22.1661 41.2899 22.6936 41.812C23.8457 42.9529 23.6895 42.3929 23.6895 44.5171C22.2983 43.5857 20.9505 42.6419 19.9465 41.2698C18.5787 39.4007 17.5826 35.7092 18.618 33.5517H24.2378C23.8579 34.2697 23.6895 34.7685 23.6895 35.8817ZM56.1751 35.7447H51.1035C51.1035 26.8298 50.7855 29.827 52.372 28.2407C52.7597 27.8529 52.9864 26.9721 53.4336 26.9721H62.0689V33.5514H75.2277V37.9376H68.6484V53.2895H77.421V66.3112C77.421 66.7584 76.5402 66.9852 76.1524 67.3728C75.7648 67.7606 75.5381 68.6412 75.0908 68.6412H67.552V66.4482C66.2452 66.4482 64.4125 66.6818 63.7491 66.002C62.2518 64.4674 65.0756 62.9621 65.7701 61.9249L61.0055 57.2317C60.5873 57.8382 58.8075 59.7319 58.0942 59.7319C56.0525 59.7319 56.5866 56.8352 56.5866 55.4828H54.3934V48.9035H57.6831V37.9377C57.6831 37.5565 58.8732 36.4463 59.1503 36.1154L60.6986 34.2369C60.3521 34.0049 60.2246 33.8197 59.9133 33.5143C59.5814 33.1891 59.4131 33.1066 59.0537 32.8661C58.1859 33.4471 56.7499 35.7447 56.1751 35.7447ZM64.2622 18.1998H79.6141V31.3585H64.2622V18.1998ZM18.2067 29.1654H40.1379V31.3585H18.2067V29.1654ZM35.7516 24.7792H36.8482C37.3318 24.7792 37.2995 25.2724 37.4012 25.7339C37.4889 26.1327 37.5776 26.5734 37.6704 26.9722H35.7514L35.7516 24.7792ZM26.9793 22.5861H29.1723V26.9722H26.9793V22.5861ZM18.755 24.7792H20.4V26.9722H18.3438C18.4081 26.2007 18.7383 25.5348 18.755 24.7792ZM48.9103 25.8757C48.9103 24.491 51.1035 24.491 51.1035 25.8757C51.1035 27.2605 48.9103 27.2605 48.9103 25.8757ZM24.7861 22.3118V26.9722H22.593C22.593 24.8425 23.0691 22.5861 19.9888 22.5861C20.2504 21.6058 22.2541 20.0821 23.1128 19.5419C25.1016 18.2905 28.0525 17.8487 30.5624 18.592C32.9284 19.2926 34.6696 20.5605 36.026 22.5862C33.078 22.5862 33.5589 25.0602 33.5589 26.9724H31.3657V22.3119C31.3657 21.456 30.3027 20.3929 29.4467 20.3929H26.7052C25.8493 20.3929 24.7861 21.4558 24.7861 22.3118ZM16.0135 28.2059V31.6326C16.0135 32.4667 16.5297 32.2297 16.3278 33.1642C15.5196 36.9081 16.1738 40.4297 18.6484 43.2531C19.6166 44.3577 19.7375 44.5298 21.086 45.4756C21.4232 45.7121 23.6896 47.1081 23.6896 47.5326V52.3301C23.6896 52.733 23.5264 52.67 23.2446 52.8445C21.7254 53.7856 20.4 55.234 20.4 57.2647V83.9933H39.0414V77.414C41.4306 77.414 40.5249 77.1842 43.0507 79.7098C43.6898 80.3489 45.0546 81.5706 45.4837 82.2113C46.5208 81.5168 48.0262 78.693 49.5608 80.1903C50.2406 80.8537 50.007 82.6865 50.007 83.9933H56.5863C56.5863 82.6865 56.3526 80.8537 57.0325 80.1903C58.0377 79.2095 58.914 80.0826 59.6361 80.8064C60.1126 81.2839 60.6112 81.6721 60.9724 82.2113L65.8036 77.4477C65.1966 77.0288 63.3026 75.2489 63.3026 74.5355C63.3026 74.2642 63.5759 73.6512 63.7488 73.474C64.4122 72.7942 66.2449 73.0278 67.5517 73.0278V70.8347H75.0905C75.654 70.8347 75.5426 71.5437 76.3011 72.2283C77.9792 73.7427 81.8069 73.2922 81.8069 69.464C81.8069 68.7643 81.4114 68.016 81.0696 67.5969C80.4103 66.7887 79.6138 66.8834 79.6138 66.3115V53.2897H84V37.9378H77.4207V33.5517H81.8069V16.0068H62.0688V24.7794H53.4335C52.6293 24.7794 52.9143 22.5862 49.7325 22.5862C47.408 22.5862 45.6103 25.7093 47.4755 27.9959C47.7196 28.295 47.9028 28.4402 48.2052 28.6368C48.5486 28.8601 48.91 28.8803 48.91 29.3027V35.745H44.5239V48.9037H52.1997V55.483H50.0067C50.0067 56.7871 50.5185 59.7322 48.499 59.7322C47.5507 59.7322 46.2436 57.7739 45.4834 57.265L40.8568 61.9591C41.5084 62.9551 44.3427 64.4665 42.844 66.0024C42.1738 66.6894 40.2462 66.4487 38.9041 66.4487C38.9041 65.0981 38.3706 63.0999 38.0531 61.954C37.2779 59.157 35.9303 57.1234 34.2232 54.9552C33.5616 54.1151 32.7099 52.4319 32.5989 51.0967C36.8744 50.1007 36.8481 47.5851 36.8481 44.2433C37.3522 44.1258 40.1377 43.3817 40.1377 42.8726C40.1377 40.1957 39.7327 37.5866 38.6302 35.3334L37.8076 33.5518C38.7441 33.5518 40.0441 33.7428 40.8724 33.4641C42.7354 32.8371 42.3307 30.7056 42.3307 28.8915C42.3307 28.05 41.4652 26.9725 40.0007 26.9725C39.2427 23.7194 38.8569 21.9223 36.4027 19.4679C34.5285 17.5937 31.5466 16.0071 28.6238 16.0071C24.4603 16.0071 22.8786 16.7448 20.0083 19.0426C17.4437 21.0959 16.0135 24.8104 16.0135 28.2059Z" fill="#5959A9"/>
<path fill-rule="evenodd" clip-rule="evenodd" d="M69.7451 26.4236L68.2668 25.023L66.6992 26.6678L69.85 29.7456L73.0026 25.9806C73.2221 25.7342 73.3035 25.691 73.5251 25.4064C74.4002 24.2815 76.5379 21.9871 77.1468 21.0781C76.9908 20.865 75.889 19.8474 75.3649 19.7075C74.9571 20.3164 74.4869 20.7858 74.0143 21.3725C72.9341 22.7131 70.6351 25.0944 69.7451 26.4236Z" fill="#5959A9"/>
</svg>
